<svg width="250" height="107" viewBox="0 0 250 107" fill="none" xmlns="http://www.w3.org/2000/svg">
<path d="M10.2515 92.7168V101.337H9.04541V100.245H6.76025V99.3945H9.04541V92.7168H10.2515ZM10.5308 102.86V103.838H2.31689V100.499H3.51025V102.86H10.5308ZM0.742676 97.9092C2.8501 97.8965 5.68115 97.8711 8.10596 97.5664L8.18213 98.4297C7.21094 98.5884 6.18896 98.6963 5.18604 98.7598V100.981H3.97998V98.8232C2.87549 98.874 1.81543 98.8804 0.89502 98.874L0.742676 97.9092ZM4.4624 93.1484C6.12549 93.1484 7.28076 93.9482 7.28076 95.1543C7.28076 96.3604 6.12549 97.1348 4.4624 97.1348C2.77393 97.1348 1.63135 96.3604 1.63135 95.1543C1.63135 93.9482 2.77393 93.1484 4.4624 93.1484ZM4.4624 94.0498C3.44678 94.0371 2.76123 94.4688 2.77393 95.1543C2.76123 95.8271 3.44678 96.2461 4.4624 96.2461C5.43994 96.2461 6.12549 95.8271 6.13818 95.1543C6.12549 94.4688 5.43994 94.0371 4.4624 94.0498ZM20.8901 92.7041V97.3125H22.7183V98.3154H20.8901V104.079H19.6968V92.7041H20.8901ZM18.7065 94.4814V95.4717H11.9653V94.4814H14.771V92.8564H15.9771V94.4814H18.7065ZM15.3804 96.3096C17.0054 96.3096 18.1987 97.4014 18.2114 98.9502C18.1987 100.512 17.0054 101.591 15.3804 101.604C13.7427 101.591 12.5493 100.512 12.5493 98.9502C12.5493 97.4014 13.7427 96.3096 15.3804 96.3096ZM15.3804 97.2998C14.4155 97.2998 13.6919 97.9727 13.7046 98.9502C13.6919 99.9404 14.4155 100.601 15.3804 100.588C16.3452 100.601 17.0562 99.9404 17.0562 98.9502C17.0562 97.9727 16.3452 97.2998 15.3804 97.2998ZM32.4683 96.0303V96.9951H24.6353V93.1104H25.8286V96.0303H32.4683ZM33.6616 98.4297V99.3945H23.2515V98.4297H33.6616ZM32.5444 102.822V103.812H24.5464V100.474H25.7524V102.822H32.5444ZM46.7886 93.2119V94.2148C46.7886 95.2939 46.7886 96.4365 46.4712 97.9854L45.2778 97.8838C45.4048 97.2681 45.4873 96.7222 45.5317 96.208L38.7651 96.5254L38.6001 95.5098L45.5825 95.3193C45.5952 94.9321 45.5952 94.5703 45.5952 94.2148V94.1895H38.8921V93.2119H46.7886ZM48.0327 98.6836V99.6484H37.686V98.6836H41.7866V97.084H43.0054V98.6836H48.0327ZM47.0298 102.924V103.901H38.9683V100.524H40.1743V102.924H47.0298ZM58.6079 92.7168V101.223H57.4653V92.7168H58.6079ZM56.3735 92.9326V100.943H55.231V96.8682H53.8218V95.8906H55.231V92.9326H56.3735ZM58.938 102.86V103.838H51.1177V100.283H52.3364V102.86H58.938ZM53.7456 93.6182V94.5957H50.5718V96.0176H53.3013V96.957H50.5718V98.4424C52.0698 98.436 53.0664 98.3979 54.228 98.1631L54.3423 99.1279C53.0347 99.3818 51.9556 99.4326 50.1528 99.4326H49.4165V93.6182H53.7456ZM70.5542 101.667V102.657H60.144V101.667H70.5542ZM69.5894 94.4561V95.4336H65.9458C65.9966 97.1411 67.666 98.5503 69.9956 98.9248L69.5132 99.8896C67.6279 99.5532 66.0664 98.5884 65.3364 97.1982C64.5938 98.5884 63.0322 99.5532 61.1597 99.8896L60.6899 98.9248C62.9941 98.5503 64.6636 97.1411 64.7271 95.4336H61.0835V94.4561H64.7397V92.9453H65.9331V94.4561H69.5894ZM81.7769 97.9219V98.8486H71.3667V97.9219H81.7769ZM80.4946 99.6484V102.149H73.8169V103.089H80.8501V103.939H72.6108V101.35H79.3013V100.512H72.5981V99.6484H80.4946ZM80.4692 92.9961V95.459H73.8931V96.3223H80.6597V97.1729H72.6997V94.6592H79.2632V93.8467H72.6743V92.9961H80.4692ZM94.8657 93.1611V93.8721C94.853 94.583 94.853 95.4717 94.6499 96.5762L93.4565 96.4746C93.6343 95.4971 93.6597 94.7734 93.6597 94.126H87.0073V93.1611H94.8657ZM96.1479 97.1602V98.1123H85.8013V97.1602H89.9526V95.2812H91.1333V97.1602H96.1479ZM94.8911 99.0518V101.87H88.2261V103H95.1831V103.965H87.02V101.032H93.6978V100.029H87.0073V99.0518H94.8911ZM105.885 92.7041V97.1475H107.713V98.1631H105.885V104.104H104.692V92.7041H105.885ZM102.673 93.7324V97.9092H98.687V100.372C100.642 100.366 102.089 100.296 103.752 99.9912L103.867 100.969C102.089 101.299 100.553 101.375 98.4204 101.388H97.4937V96.9316H101.48V94.71H97.4683V93.7324H102.673ZM120.828 92.9961V93.9102H119.177V95.8906H120.777V96.792H117.209V97.7695H121.805V98.7217H111.433V97.7695H116.003V96.792H112.436V95.8906H114.048V93.9102H112.385V92.9961H120.828ZM120.498 99.5342V102.099H113.871V103.051H120.815V103.965H112.69V101.248H119.304V100.41H112.677V99.5342H120.498ZM115.242 95.8906H117.971V93.9102H115.242V95.8906ZM128.445 93.7578V94.7607H124.446V100.309C126.35 100.302 127.664 100.232 129.156 99.9404L129.295 100.931C127.658 101.235 126.274 101.312 124.128 101.312H123.227V93.7578H128.445ZM132.165 92.7041V104.104H130.958V97.7695H127.797V96.7666H130.958V92.7041H132.165ZM143.692 92.7041V104.079H142.537V92.7041H143.692ZM141.381 92.9199V103.521H140.226V98.0361H138.944C138.842 100.258 137.89 101.642 136.481 101.629C134.996 101.642 134.031 100.08 134.031 97.6172C134.031 95.1543 134.996 93.6055 136.481 93.6182C137.865 93.6055 138.804 94.9194 138.944 97.0586H140.226V92.9199H141.381ZM136.481 94.748C135.656 94.748 135.148 95.8018 135.148 97.6172C135.148 99.4326 135.656 100.486 136.481 100.486C137.319 100.486 137.839 99.4326 137.839 97.6172C137.839 95.8018 137.319 94.748 136.481 94.748ZM158.723 101.654V102.657H148.313V101.654H152.896V99.0264H149.506V93.6182H157.479V99.0264H154.089V101.654H158.723ZM150.674 94.583V98.0742H156.298V94.583H150.674ZM162.595 93.5547C164.296 93.5547 165.502 95.1035 165.515 97.541C165.502 99.9912 164.296 101.54 162.595 101.54C160.894 101.54 159.675 99.9912 159.688 97.541C159.675 95.1035 160.894 93.5547 162.595 93.5547ZM162.595 94.6338C161.554 94.6338 160.843 95.751 160.843 97.541C160.843 99.3438 161.554 100.461 162.595 100.461C163.649 100.461 164.36 99.3438 164.36 97.541C164.36 95.751 163.649 94.6338 162.595 94.6338ZM168.41 92.7041V97.1602H170.238V98.1758H168.41V104.079H167.204V92.7041H168.41ZM181.194 101.667V102.67H170.784V101.667H175.367V99.3311H171.977V93.4785H173.183V95.4336H178.769V93.4785H179.962V99.3311H176.56V101.667H181.194ZM173.183 98.3535H178.769V96.4111H173.183V98.3535ZM185.485 95.8145C185.485 97.6299 186.247 99.5723 187.77 100.499L187.097 101.426C186.031 100.785 185.307 99.6484 184.926 98.3281C184.501 99.7754 183.72 101.007 182.616 101.68L181.867 100.778C183.479 99.8135 184.317 97.8076 184.317 95.8652V93.7451H185.485V95.8145ZM191.807 92.7041V104.079H190.652V92.7041H191.807ZM189.446 92.9199V103.521H188.303V97.7061H186.539V96.7031H188.303V92.9199H189.446ZM203.665 101.654V102.657H193.254V101.654H195.743V98.6836C194.81 98.1694 194.245 97.3506 194.245 96.335C194.245 94.5449 195.997 93.3643 198.434 93.3643C200.884 93.3643 202.636 94.5449 202.636 96.335C202.636 97.3379 202.09 98.144 201.176 98.6582V101.654H203.665ZM198.434 94.3291C196.644 94.3291 195.413 95.1035 195.413 96.335C195.413 97.5537 196.644 98.3535 198.434 98.3535C200.211 98.3535 201.468 97.5537 201.468 96.335C201.468 95.1035 200.211 94.3291 198.434 94.3291ZM196.936 101.654H199.958V99.1152C199.494 99.2358 198.98 99.293 198.434 99.293C197.901 99.293 197.393 99.2358 196.936 99.1279V101.654ZM206.584 93.8086L206.47 100.347H205.213L205.099 93.8086H206.584ZM205.848 103.089C205.353 103.089 204.934 102.683 204.947 102.188C204.934 101.692 205.353 101.286 205.848 101.286C206.331 101.286 206.75 101.692 206.75 102.188C206.75 102.683 206.331 103.089 205.848 103.089Z" fill="white"/>
<rect x="176" width="74" height="48" rx="24" fill="#6E8ECE" fill-opacity="0.5"/>
<rect x="184" y="8" width="57" height="32" rx="16" fill="white"/>
<rect x="184" y="8" width="57" height="32" rx="16" stroke="#689BFF" stroke-width="2"/>
<path d="M205.645 20.7861C205.645 22.3223 206.674 23.8203 208.387 24.417L207.727 25.3564C206.483 24.8804 205.556 23.9409 205.074 22.7539C204.579 24.0742 203.608 25.1152 202.268 25.623L201.621 24.6709C203.386 24.0361 204.439 22.4619 204.452 20.748V19.4023H205.645V20.7861ZM211.117 18.7168V27.1973H209.911V22.2969H207.512V21.3066H209.911V18.7168H211.117ZM211.371 28.8604V29.8379H203.69V26.2451H204.909V28.8604H211.371ZM217.882 19.5166V20.4941H214.594V21.7637H217.755V22.6904H214.594V24.0742C216.117 24.0615 217.12 24.0044 218.288 23.7822L218.403 24.7725C217.07 25.0264 215.99 25.0771 214.175 25.0645H213.439V19.5166H217.882ZM222.668 18.7168V25.623H221.526V22.5889H220.129V25.5342H218.999V18.9199H220.129V21.6113H221.526V18.7168H222.668ZM222.668 26.1689V30.0791H221.475V27.1465H214.937V26.1689H222.668Z" fill="#2960C6"/>
<path d="M189.152 65.6741V48.6828C189.152 47.9713 189.406 47.2889 189.857 46.7858C190.308 46.2827 190.92 46 191.558 46C192.196 46 192.807 46.2827 193.259 46.7858C193.71 47.2889 193.963 47.9713 193.963 48.6828V63.8855M193.963 62.9912V59.4141C193.963 58.7026 194.216 58.0202 194.668 57.5171C195.119 57.014 195.73 56.7313 196.368 56.7313C197.006 56.7313 197.618 57.014 198.069 57.5171C198.52 58.0202 198.774 58.7026 198.774 59.4141V63.8855M198.774 61.2027C198.774 60.4912 199.027 59.8088 199.478 59.3056C199.929 58.8025 200.541 58.5199 201.179 58.5199C201.817 58.5199 202.429 58.8025 202.88 59.3056C203.331 59.8088 203.584 60.4912 203.584 61.2027V63.8855" stroke="white" stroke-width="1.49312" stroke-linecap="round" stroke-linejoin="round"/>
<path d="M203.584 63.7797C203.584 63.0681 203.837 62.3857 204.288 61.8826C204.739 61.3795 205.351 61.0968 205.989 61.0968C206.627 61.0968 207.239 61.3795 207.69 61.8826C208.141 62.3857 208.394 63.0681 208.394 63.7797V71.0396C208.394 73.8857 207.381 76.6153 205.576 78.6278C203.772 80.6403 201.325 81.7709 198.773 81.7709H195.566H195.899C194.306 81.7712 192.737 81.3301 191.335 80.4872C189.932 79.6443 188.739 78.4261 187.862 76.9418L187.548 76.4052C187.048 75.5491 184.954 71.5357 184.05 67.0891C183.88 66.2524 184.198 64.3628 184.198 64.3628C184.574 63.6404 184.43 63.9211 184.729 63.3551C185.387 62.1099 188.303 60.5635 188.965 60.6542C188.959 63.3371 188.922 62.8897 188.922 62.8897L189.152 65.6739" stroke="white" stroke-width="1.49312" stroke-linecap="round" stroke-linejoin="round"/>
</svg>
