<svg width="232" height="90" viewBox="0 0 232 90" fill="none" xmlns="http://www.w3.org/2000/svg">
<circle cx="116" cy="25" r="25" fill="#87B0FE" fill-opacity="0.3"/>
<circle cx="116" cy="25" r="17" fill="#6E8ECE" fill-opacity="0.5"/>
<circle cx="116" cy="25" r="8" fill="#689BFF"/>
<path d="M125.497 48.3599L117.607 33.3116C117.277 32.6814 117.184 31.9594 117.35 31.3043C117.516 30.6493 117.927 30.1149 118.492 29.8186C119.057 29.5224 119.73 29.4886 120.363 29.7248C120.996 29.9609 121.537 30.4476 121.868 31.0778L128.927 44.542M128.512 43.75L126.851 40.582C126.52 39.9518 126.428 39.2298 126.594 38.5747C126.76 37.9196 127.17 37.3852 127.735 37.089C128.3 36.7928 128.973 36.759 129.607 36.9951C130.24 37.2313 130.781 37.7179 131.111 38.3481L133.188 42.3082M131.942 39.9321C131.611 39.302 131.519 38.5799 131.685 37.9249C131.851 37.2698 132.261 36.7354 132.826 36.4392C133.391 36.1429 134.064 36.1092 134.698 36.3453C135.331 36.5814 135.872 37.0681 136.202 37.6983L137.448 40.0743" stroke="white" stroke-width="1.49312" stroke-linecap="round" stroke-linejoin="round"/>
<path d="M137.399 39.9805C137.068 39.3504 136.976 38.6283 137.142 37.9733C137.308 37.3182 137.718 36.7838 138.283 36.4875C138.848 36.1913 139.521 36.1576 140.155 36.3937C140.788 36.6298 141.329 37.1165 141.659 37.7467L145.031 44.1764C146.352 46.6971 146.722 49.5852 146.058 52.2055C145.395 54.8257 143.752 56.9634 141.492 58.1483L138.652 59.6376L138.948 59.4827C137.536 60.2228 135.942 60.5605 134.309 60.4654C132.675 60.3703 131.052 59.8454 129.587 58.9378L129.06 58.6085C128.219 58.0826 124.501 55.5005 121.636 51.982C121.097 51.3198 120.5 49.4989 120.5 49.4989C120.498 48.6845 120.501 48.9999 120.503 48.3597C120.508 46.9511 122.372 44.2277 123.001 44.0006C124.241 46.3795 124.001 46.0003 124.001 46.0003L125.497 48.3597" stroke="white" stroke-width="1.49312" stroke-linecap="round" stroke-linejoin="round"/>
<path d="M10.6733 76.2119V77.2148C10.6733 78.2939 10.6733 79.4365 10.356 80.9854L9.1626 80.8838C9.28955 80.2681 9.37207 79.7222 9.4165 79.208L2.6499 79.5254L2.48486 78.5098L9.46729 78.3193C9.47998 77.9321 9.47998 77.5703 9.47998 77.2148V77.1895H2.77686V76.2119H10.6733ZM11.9175 81.6836V82.6484H1.5708V81.6836H5.67139V80.084H6.89014V81.6836H11.9175ZM10.9146 85.9238V86.9014H2.85303V83.5244H4.05908V85.9238H10.9146ZM22.4927 75.7168V84.2227H21.3501V75.7168H22.4927ZM20.2583 75.9326V83.9434H19.1157V79.8682H17.7065V78.8906H19.1157V75.9326H20.2583ZM22.8228 85.8604V86.8379H15.0024V83.2832H16.2212V85.8604H22.8228ZM17.6304 76.6182V77.5957H14.4565V79.0176H17.186V79.957H14.4565V81.4424C15.9546 81.436 16.9512 81.3979 18.1128 81.1631L18.2271 82.1279C16.9194 82.3818 15.8403 82.4326 14.0376 82.4326H13.3013V76.6182H17.6304ZM34.439 84.667V85.6572H24.0288V84.667H34.439ZM33.4741 77.4561V78.4336H29.8306C29.8813 80.1411 31.5508 81.5503 33.8804 81.9248L33.3979 82.8896C31.5127 82.5532 29.9512 81.5884 29.2212 80.1982C28.4785 81.5884 26.917 82.5532 25.0444 82.8896L24.5747 81.9248C26.8789 81.5503 28.5483 80.1411 28.6118 78.4336H24.9683V77.4561H28.6245V75.9453H29.8179V77.4561H33.4741ZM45.6616 80.9219V81.8486H35.2515V80.9219H45.6616ZM44.3794 82.6484V85.1494H37.7017V86.0889H44.7349V86.9395H36.4956V84.3496H43.186V83.5117H36.4829V82.6484H44.3794ZM44.354 75.9961V78.459H37.7778V79.3223H44.5444V80.1729H36.5845V77.6592H43.1479V76.8467H36.5591V75.9961H44.354ZM59.106 75.7041V81.4932H57.8999V75.7041H59.106ZM55.6909 76.2119C55.6782 79.1953 53.7358 80.96 50.2954 81.7217L49.8511 80.7441C52.7012 80.1475 54.1865 78.8716 54.3706 77.2021H50.4478V76.2119H55.6909ZM59.106 82.001V84.8574H52.8599V86.0127H59.4868V86.9648H51.6665V83.9561H57.8999V82.9531H51.6284V82.001H59.106ZM70.6841 75.7041V87.0791H69.5415V75.7041H70.6841ZM68.2847 75.9961V86.5205H67.1421V81.2393H64.9204C64.2412 82.5596 63.1621 83.7148 61.5562 84.6543L60.8706 83.791C63.2827 82.3564 64.4443 80.4458 64.6538 78.1035H61.4038V77.1133H65.8472C65.8408 78.2241 65.6885 79.2842 65.3394 80.2744H67.1421V75.9961H68.2847ZM84.8013 75.7041V87.1045H83.6079V80.8965H81.3481V79.9062H83.6079V75.7041H84.8013ZM81.1577 76.7197V77.6973H77.0571V79.9062H80.6753V80.8711H77.0571V83.4102C78.9614 83.4038 80.2817 83.3594 81.7925 83.0928L81.9194 84.0703C80.269 84.3369 78.8345 84.4004 76.7271 84.4131H75.8384V76.7197H81.1577ZM95.9731 75.7041V87.0791H94.7671V75.7041H95.9731ZM90.8315 79.3604C90.8315 81.1758 92.0376 83.0293 93.8022 83.7783L93.1421 84.7051C91.8345 84.1338 90.7871 82.9531 90.2603 81.5186C89.7461 83.0356 88.7178 84.2988 87.3911 84.8955L86.7183 83.9688C88.4829 83.1816 89.6509 81.2646 89.6509 79.3604V78.6113H87.061V77.6465H89.6382V75.9326H90.8315V77.6465H93.3833V78.6113H90.8315V79.3604ZM103.413 77.583V78.5605H97.7632V77.583H99.9976V76.0342H101.191V77.583H103.413ZM100.594 79.2461C102.042 79.2461 103.057 80.3252 103.07 81.8613C103.057 83.4102 102.042 84.502 100.594 84.502C99.1724 84.502 98.1187 83.4102 98.1313 81.8613C98.1187 80.3252 99.1724 79.2461 100.594 79.2461ZM100.594 80.249C99.769 80.249 99.1978 80.9219 99.1978 81.8613C99.1978 82.8262 99.769 83.4736 100.594 83.4736C101.407 83.4736 102.003 82.8262 102.003 81.8613C102.003 80.9219 101.407 80.249 100.594 80.249ZM107.526 75.7041V87.0791H106.383V81.4297H105.076V86.5459H103.933V75.958H105.076V80.4395H106.383V75.7041H107.526ZM113.125 78.5986C113.125 80.6807 114.292 82.75 116.032 83.5371L115.295 84.502C114 83.8545 113.029 82.5659 112.528 81.0107C112.026 82.6484 111.03 84.0322 109.722 84.7178L108.96 83.7402C110.725 82.9023 111.906 80.7061 111.906 78.5986V76.6562H113.125V78.5986ZM118.507 75.7041V87.1045H117.314V80.4648H114.775V79.4873H117.314V75.7041H118.507ZM133.196 75.7041V87.0791H132.041V75.7041H133.196ZM130.885 75.9453V86.5078H129.743V80.7188H127.978V79.7285H129.743V75.9453H130.885ZM126.861 78.8779C126.861 80.8203 127.648 82.7627 129.248 83.6895L128.524 84.5781C127.438 83.9307 126.689 82.7817 126.302 81.4043C125.89 82.8896 125.115 84.1528 124.004 84.8447L123.268 83.9434C124.88 82.9658 125.706 80.8965 125.706 78.8779V77.9639H123.611V76.9863H128.816V77.9639H126.861V78.8779ZM143.72 76.1738V80.0713H140.445V81.3916H145.041V82.3691H134.668V81.3916H139.251V80.0713H135.989V76.1738H143.72ZM137.169 77.126V79.1064H142.527V77.126H137.169ZM143.771 83.4482V87.0791H142.552V84.4004H135.824V83.4482H143.771ZM151.083 75.8945C153.648 75.8945 155.146 76.5801 155.146 77.8496C155.146 79.1191 153.648 79.8174 151.083 79.8174C148.519 79.8174 147.021 79.1191 147.021 77.8496C147.021 76.5801 148.519 75.8945 151.083 75.8945ZM151.083 76.7832C149.268 76.7832 148.265 77.1768 148.278 77.8496C148.265 78.5479 149.268 78.916 151.083 78.916C152.899 78.916 153.902 78.5479 153.902 77.8496C153.902 77.1768 152.899 76.7832 151.083 76.7832ZM156.276 80.5156V81.4805H145.904V80.5156H156.276ZM154.968 82.3564V85.0225H148.341V86.0381H155.286V86.9648H147.161V84.1465H153.775V83.2578H147.148V82.3564H154.968ZM166.14 76.707C166.127 78.2178 167.981 79.6396 170.215 79.9316L169.746 80.9219C167.886 80.6235 166.248 79.6587 165.518 78.3193C164.769 79.665 163.138 80.6235 161.291 80.9219L160.808 79.9316C163.042 79.6396 164.871 78.2305 164.883 76.707V76.085H166.14V76.707ZM170.685 82.0391V83.0293H166.064V87.0791H164.883V83.0293H160.313V82.0391H170.685ZM181.032 75.7041V82.4707H179.826V79.5889H177.706V78.5986H179.826V75.7041H181.032ZM177.223 82.7881C179.61 82.7881 181.07 83.5752 181.07 84.9336C181.07 86.292 179.61 87.0664 177.223 87.0791C174.836 87.0664 173.364 86.292 173.376 84.9336C173.364 83.5752 174.836 82.7881 177.223 82.7881ZM177.223 83.7275C175.56 83.7275 174.57 84.1592 174.57 84.9336C174.57 85.6953 175.56 86.1396 177.223 86.127C178.886 86.1396 179.876 85.6953 179.876 84.9336C179.876 84.1592 178.886 83.7275 177.223 83.7275ZM175.624 77.71C175.624 79.1572 176.652 80.5537 178.366 81.1377L177.744 82.0898C176.468 81.6455 175.528 80.7378 175.04 79.6143C174.538 80.8901 173.542 81.9121 172.183 82.4072L171.548 81.4424C173.313 80.833 174.392 79.2969 174.392 77.7227V77.4688H171.929V76.4912H178.061V77.4688H175.624V77.71ZM188.408 77.583V78.5605H182.758V77.583H184.993V76.0342H186.186V77.583H188.408ZM185.589 79.2461C187.037 79.2461 188.052 80.3252 188.065 81.8613C188.052 83.4102 187.037 84.502 185.589 84.502C184.167 84.502 183.114 83.4102 183.126 81.8613C183.114 80.3252 184.167 79.2461 185.589 79.2461ZM185.589 80.249C184.764 80.249 184.193 80.9219 184.193 81.8613C184.193 82.8262 184.764 83.4736 185.589 83.4736C186.402 83.4736 186.999 82.8262 186.999 81.8613C186.999 80.9219 186.402 80.249 185.589 80.249ZM192.521 75.7041V87.0791H191.378V81.4297H190.071V86.5459H188.928V75.958H190.071V80.4395H191.378V75.7041H192.521ZM204.429 84.667V85.6699H194.019V84.667H198.602V82.3311H195.212V76.4785H196.418V78.4336H202.004V76.4785H203.198V82.3311H199.795V84.667H204.429ZM196.418 81.3535H202.004V79.4111H196.418V81.3535ZM208.72 78.8145C208.72 80.6299 209.482 82.5723 211.005 83.499L210.333 84.4258C209.266 83.7847 208.542 82.6484 208.162 81.3281C207.736 82.7754 206.956 84.0068 205.851 84.6797L205.102 83.7783C206.714 82.8135 207.552 80.8076 207.552 78.8652V76.7451H208.72V78.8145ZM215.042 75.7041V87.0791H213.887V75.7041H215.042ZM212.681 75.9199V86.5205H211.539V80.7061H209.774V79.7031H211.539V75.9199H212.681ZM226.9 84.6543V85.6572H216.49V84.6543H218.978V81.6836C218.045 81.1694 217.48 80.3506 217.48 79.335C217.48 77.5449 219.232 76.3643 221.669 76.3643C224.12 76.3643 225.872 77.5449 225.872 79.335C225.872 80.3379 225.326 81.144 224.412 81.6582V84.6543H226.9ZM221.669 77.3291C219.879 77.3291 218.648 78.1035 218.648 79.335C218.648 80.5537 219.879 81.3535 221.669 81.3535C223.447 81.3535 224.704 80.5537 224.704 79.335C224.704 78.1035 223.447 77.3291 221.669 77.3291ZM220.171 84.6543H223.193V82.1152C222.729 82.2358 222.215 82.293 221.669 82.293C221.136 82.293 220.628 82.2358 220.171 82.1279V84.6543ZM229.82 76.8086L229.706 83.3467H228.449L228.334 76.8086H229.82ZM229.083 86.0889C228.588 86.0889 228.169 85.6826 228.182 85.1875C228.169 84.6924 228.588 84.2861 229.083 84.2861C229.566 84.2861 229.985 84.6924 229.985 85.1875C229.985 85.6826 229.566 86.0889 229.083 86.0889Z" fill="white"/>
</svg>
