<svg width="211" height="85" viewBox="0 0 211 85" fill="none" xmlns="http://www.w3.org/2000/svg">
<path d="M9.92773 71.2119V72.2148C9.92773 73.2939 9.92773 74.4365 9.61035 75.9854L8.41699 75.8838C8.54395 75.2681 8.62646 74.7222 8.6709 74.208L1.9043 74.5254L1.73926 73.5098L8.72168 73.3193C8.73438 72.9321 8.73438 72.5703 8.73438 72.2148V72.1895H2.03125V71.2119H9.92773ZM11.1719 76.6836V77.6484H0.825195V76.6836H4.92578V75.084H6.14453V76.6836H11.1719ZM10.1689 80.9238V81.9014H2.10742V78.5244H3.31348V80.9238H10.1689ZM21.7471 70.7168V79.2227H20.6045V70.7168H21.7471ZM19.5127 70.9326V78.9434H18.3701V74.8682H16.9609V73.8906H18.3701V70.9326H19.5127ZM22.0771 80.8604V81.8379H14.2568V78.2832H15.4756V80.8604H22.0771ZM16.8848 71.6182V72.5957H13.7109V74.0176H16.4404V74.957H13.7109V76.4424C15.209 76.436 16.2056 76.3979 17.3672 76.1631L17.4814 77.1279C16.1738 77.3818 15.0947 77.4326 13.292 77.4326H12.5557V71.6182H16.8848ZM33.6934 79.667V80.6572H23.2832V79.667H33.6934ZM32.7285 72.4561V73.4336H29.085C29.1357 75.1411 30.8052 76.5503 33.1348 76.9248L32.6523 77.8896C30.7671 77.5532 29.2056 76.5884 28.4756 75.1982C27.7329 76.5884 26.1714 77.5532 24.2988 77.8896L23.8291 76.9248C26.1333 76.5503 27.8027 75.1411 27.8662 73.4336H24.2227V72.4561H27.8789V70.9453H29.0723V72.4561H32.7285ZM44.916 75.9219V76.8486H34.5059V75.9219H44.916ZM43.6338 77.6484V80.1494H36.9561V81.0889H43.9893V81.9395H35.75V79.3496H42.4404V78.5117H35.7373V77.6484H43.6338ZM43.6084 70.9961V73.459H37.0322V74.3223H43.7988V75.1729H35.8389V72.6592H42.4023V71.8467H35.8135V70.9961H43.6084ZM58.4238 70.7041V82.1045H57.2178V75.7822H54.8691V74.792H57.2178V70.7041H58.4238ZM52.9902 73.9033C52.9902 75.833 54.1963 77.9023 55.9482 78.6768L55.2246 79.6416C53.9106 79.0068 52.895 77.6802 52.3936 76.125C51.8857 77.7817 50.8511 79.1973 49.5371 79.8701L48.8008 78.9307C50.54 78.1055 51.7588 75.9473 51.7715 73.9033V72.8369H49.2578V71.8467H55.5166V72.8369H52.9902V73.9033ZM64.1367 72.7988C64.1367 74.2461 65.1396 75.5664 66.8662 76.1123L66.2949 77.0518C65 76.6392 64.0542 75.7822 63.5527 74.7031C63.0576 75.9473 62.061 76.9312 60.6963 77.4072L60.0742 76.4424C61.8516 75.8584 62.918 74.3857 62.9307 72.8115V72.4941H60.4297V71.5166H66.5869V72.4941H64.1367V72.7988ZM69.1006 70.7041V73.5225H70.751V74.5127H69.1006V77.5342H67.8945V70.7041H69.1006ZM65.4316 77.8135C67.7803 77.8135 69.2021 78.5879 69.2021 79.9209C69.2021 81.2666 67.7803 82.0664 65.4316 82.0537C63.0576 82.0664 61.6104 81.2666 61.6104 79.9209C61.6104 78.5879 63.0576 77.8135 65.4316 77.8135ZM65.4316 78.7656C63.7812 78.7656 62.8037 79.1846 62.8164 79.9209C62.8037 80.6826 63.7812 81.1016 65.4316 81.1016C67.0693 81.1016 68.0215 80.6826 68.0215 79.9209C68.0215 79.1846 67.0693 78.7656 65.4316 78.7656ZM80.3359 70.7168V74.373H81.9863V75.376H80.3359V79.2227H79.1299V70.7168H80.3359ZM78.1904 72.0371V73.0146H71.4111V72.0371H74.2041V70.7041H75.4102V72.0371H78.1904ZM74.8008 73.5605C76.4385 73.5605 77.5557 74.4111 77.5557 75.7061C77.5557 77.001 76.4385 77.8389 74.8008 77.8389C73.1504 77.8389 72.0332 77.001 72.0332 75.7061C72.0332 74.4111 73.1504 73.5605 74.8008 73.5605ZM74.8008 74.4873C73.8359 74.4873 73.1885 74.957 73.2012 75.7061C73.1885 76.4424 73.8359 76.8994 74.8008 76.8994C75.7656 76.8994 76.4131 76.4424 76.4258 75.7061C76.4131 74.957 75.7656 74.4873 74.8008 74.4873ZM80.8184 80.8604V81.8379H73.125V78.5498H74.3311V80.8604H80.8184ZM94.7451 70.7041V72.9893H96.3955V74.0049H94.7451V76.4043H93.5391V70.7041H94.7451ZM87.5342 71.2119V74.9189C89.064 74.9062 90.6763 74.7856 92.4219 74.4365L92.5742 75.4395C90.6572 75.8203 88.9307 75.9346 87.2549 75.9346H86.3281V71.2119H87.5342ZM94.7451 76.9248V79.8193H88.6133V80.9619H95.1387V81.9395H87.4199V78.8926H93.5391V77.877H87.3945V76.9248H94.7451ZM106.209 70.7041V75.1475H107.707V76.1631H106.209V82.0791H105.003V70.7041H106.209ZM99.7344 73.9287C99.7344 75.2046 99.8867 76.9502 100.775 78.1816C101.62 76.9756 101.791 75.249 101.804 73.9287V72.7861H100.991V71.8086H104.165V72.7861H102.946V73.9287C102.946 75.6807 103.276 77.7627 104.698 78.8037L103.924 79.6797C103.111 79.0513 102.635 78.0547 102.362 76.9248C102.102 78.0801 101.62 79.1338 100.763 79.7812C99.9185 79.1401 99.436 78.0801 99.1758 76.9375C98.8901 78.0547 98.4141 79.0576 97.6143 79.6797L96.8398 78.8037C98.249 77.75 98.5918 75.6299 98.5918 73.9287V72.7861H97.2334V71.8086H100.534V72.7861H99.7344V73.9287ZM118.688 79.7051V80.7207H108.278V79.7051H112.861V77.7119H109.548V74.0938H116.226V72.4941H109.522V71.5039H117.419V75.0586H110.741V76.7217H117.686V77.7119H114.055V79.7051H118.688ZM126.674 73.0527C126.674 74.3477 127.702 75.5664 129.441 76.0488L128.896 76.9756C127.569 76.6074 126.598 75.8076 126.09 74.7793C125.588 75.9028 124.592 76.7788 123.246 77.1914L122.662 76.2393C124.401 75.7441 125.48 74.4746 125.48 73.0527V72.9258H123.005V71.9609H125.48V70.6533H126.687V71.9609H129.149V72.9258H126.674V73.0527ZM131.625 70.7041V73.4336H133.275V74.4365H131.625V77.2676H130.419V70.7041H131.625ZM131.803 77.8389V78.8037H128.692C128.908 79.8638 130.368 80.835 132.272 81.1143L131.828 82.041C130.102 81.7744 128.68 80.981 128.02 79.8955C127.366 80.9746 125.957 81.7554 124.236 82.0283L123.792 81.1016C125.703 80.835 127.144 79.8955 127.372 78.8037H124.249V77.8389H131.803ZM136.97 71.5547C138.671 71.5547 139.877 73.1035 139.89 75.541C139.877 77.9912 138.671 79.54 136.97 79.54C135.269 79.54 134.05 77.9912 134.062 75.541C134.05 73.1035 135.269 71.5547 136.97 71.5547ZM136.97 72.6338C135.929 72.6338 135.218 73.751 135.218 75.541C135.218 77.3438 135.929 78.4609 136.97 78.4609C138.023 78.4609 138.734 77.3438 138.734 75.541C138.734 73.751 138.023 72.6338 136.97 72.6338ZM142.784 70.7041V75.1602H144.612V76.1758H142.784V82.0791H141.578V70.7041H142.784ZM155.568 79.667V80.6699H145.158V79.667H149.741V77.3311H146.352V71.4785H147.558V73.4336H153.144V71.4785H154.337V77.3311H150.935V79.667H155.568ZM147.558 76.3535H153.144V74.4111H147.558V76.3535ZM159.859 73.8145C159.859 75.6299 160.621 77.5723 162.145 78.499L161.472 79.4258C160.405 78.7847 159.682 77.6484 159.301 76.3281C158.875 77.7754 158.095 79.0068 156.99 79.6797L156.241 78.7783C157.854 77.8135 158.691 75.8076 158.691 73.8652V71.7451H159.859V73.8145ZM166.182 70.7041V82.0791H165.026V70.7041H166.182ZM163.82 70.9199V81.5205H162.678V75.7061H160.913V74.7031H162.678V70.9199H163.82ZM178.039 79.6543V80.6572H167.629V79.6543H170.117V76.6836C169.184 76.1694 168.619 75.3506 168.619 74.335C168.619 72.5449 170.371 71.3643 172.809 71.3643C175.259 71.3643 177.011 72.5449 177.011 74.335C177.011 75.3379 176.465 76.144 175.551 76.6582V79.6543H178.039ZM172.809 72.3291C171.019 72.3291 169.787 73.1035 169.787 74.335C169.787 75.5537 171.019 76.3535 172.809 76.3535C174.586 76.3535 175.843 75.5537 175.843 74.335C175.843 73.1035 174.586 72.3291 172.809 72.3291ZM171.311 79.6543H174.332V77.1152C173.869 77.2358 173.354 77.293 172.809 77.293C172.275 77.293 171.768 77.2358 171.311 77.1279V79.6543ZM180.959 71.8086L180.845 78.3467H179.588L179.474 71.8086H180.959ZM180.223 81.0889C179.728 81.0889 179.309 80.6826 179.321 80.1875C179.309 79.6924 179.728 79.2861 180.223 79.2861C180.705 79.2861 181.124 79.6924 181.124 80.1875C181.124 80.6826 180.705 81.0889 180.223 81.0889Z" fill="white"/>
<rect x="193.5" y="24.5" width="17" height="35" rx="8.5" fill="#2960C6" stroke="#689BFF"/>
<path d="M198.197 35.8313C198.135 35.7782 198.085 35.7151 198.051 35.6456C198.017 35.5761 198 35.5015 198 35.4262C198 35.3509 198.017 35.2763 198.051 35.2068C198.085 35.1373 198.135 35.0742 198.197 35.0212L201.527 32.1687C201.589 32.1153 201.663 32.0728 201.744 32.0439C201.825 32.0149 201.912 32 202 32C202.088 32 202.175 32.0149 202.256 32.0439C202.337 32.0728 202.411 32.1153 202.473 32.1687L205.803 35.0212C205.865 35.0742 205.915 35.1373 205.949 35.2068C205.983 35.2763 206 35.3509 206 35.4262C206 35.5015 205.983 35.5761 205.949 35.6456C205.915 35.7151 205.865 35.7782 205.803 35.8313C205.741 35.8847 205.667 35.9272 205.586 35.9561C205.505 35.9851 205.418 36 205.33 36C205.242 36 205.155 35.9851 205.074 35.9561C204.993 35.9272 204.919 35.8847 204.857 35.8313L202 33.3782L199.143 35.8313C199.081 35.8847 199.007 35.9272 198.926 35.9561C198.845 35.9851 198.758 36 198.67 36C198.582 36 198.495 35.9851 198.414 35.9561C198.333 35.9272 198.259 35.8847 198.197 35.8313Z" fill="#FCFCFC"/>
<path d="M198.197 48.1687C198.135 48.2218 198.085 48.2849 198.051 48.3544C198.017 48.4239 198 48.4985 198 48.5738C198 48.6491 198.017 48.7237 198.051 48.7932C198.085 48.8627 198.135 48.9258 198.197 48.9788L201.527 51.8313C201.589 51.8847 201.663 51.9272 201.744 51.9561C201.825 51.9851 201.912 52 202 52C202.088 52 202.175 51.9851 202.256 51.9561C202.337 51.9272 202.411 51.8847 202.473 51.8313L205.803 48.9788C205.865 48.9258 205.915 48.8627 205.949 48.7932C205.983 48.7237 206 48.6491 206 48.5738C206 48.4985 205.983 48.4239 205.949 48.3544C205.915 48.2849 205.865 48.2218 205.803 48.1687C205.741 48.1153 205.667 48.0728 205.586 48.0439C205.505 48.0149 205.418 48 205.33 48C205.242 48 205.155 48.0149 205.074 48.0439C204.993 48.0728 204.919 48.1153 204.857 48.1687L202 50.6218L199.143 48.1687C199.081 48.1153 199.007 48.0728 198.926 48.0439C198.845 48.0149 198.758 48 198.67 48C198.582 48 198.495 48.0149 198.414 48.0439C198.333 48.0728 198.259 48.1153 198.197 48.1687Z" fill="#FCFCFC"/>
<rect x="204.408" y="68" width="8.8889" height="5.3336" transform="rotate(90 204.408 68)" fill="url(#paint0_linear_1693_3209)"/>
<path d="M201.704 84L195.032 76.4444H208.376L201.704 84Z" fill="#689BFF"/>
<rect x="199" y="16" width="8.8889" height="5.3336" transform="rotate(-90 199 16)" fill="url(#paint1_linear_1693_3209)"/>
<path d="M201.704 0L208.376 7.55557H195.032L201.704 0Z" fill="#689BFF"/>
<rect x="70" y="27" width="112" height="31" rx="15.5" fill="#FCFCFC"/>
<path d="M87.4291 46.5V45.6406L90.1254 42.9229C90.974 42.0312 91.4037 41.5371 91.4037 40.8604C91.4037 40.0977 90.7807 39.6035 89.9643 39.6035C89.1049 39.6035 88.5463 40.1514 88.5463 40.9785H87.4291C87.4184 39.5605 88.5033 38.6152 89.9857 38.6152C91.4896 38.6152 92.5209 39.5605 92.5316 40.8281C92.5209 41.6982 92.1127 42.3857 90.6518 43.8252L89.0727 45.4258V45.4902H92.6605V46.5H87.4291ZM96.4781 46.6074C94.6734 46.6074 93.6207 45.1572 93.6207 42.6113C93.6207 40.0869 94.6949 38.6152 96.4781 38.6152C98.2613 38.6152 99.3355 40.0869 99.3355 42.6113C99.3355 45.1572 98.2721 46.6074 96.4781 46.6074ZM96.4781 45.5869C97.5309 45.5869 98.1539 44.5557 98.1539 42.6113C98.1539 40.6777 97.5201 39.6143 96.4781 39.6143C95.4361 39.6143 94.8023 40.6777 94.8023 42.6113C94.8023 44.5557 95.4254 45.5869 96.4781 45.5869ZM100.36 46.5V45.6406L103.056 42.9229C103.905 42.0312 104.335 41.5371 104.335 40.8604C104.335 40.0977 103.712 39.6035 102.895 39.6035C102.036 39.6035 101.477 40.1514 101.477 40.9785H100.36C100.349 39.5605 101.434 38.6152 102.917 38.6152C104.421 38.6152 105.452 39.5605 105.463 40.8281C105.452 41.6982 105.044 42.3857 103.583 43.8252L102.004 45.4258V45.4902H105.592V46.5H100.36ZM106.358 44.9854V44.0293L109.796 38.7227H111.257V43.9863H112.32V44.9854H111.257V46.5H110.14V44.9854H106.358ZM107.604 43.9863H110.14V40.1299H110.054L107.604 43.9219V43.9863ZM121.004 37.7988V44.9102H119.984V41.6338H117.341V40.8174H119.984V39.8076H117.341V38.9912H119.984V37.7988H121.004ZM121.251 46.3818V47.209H114.731V44.2871H115.762V46.3818H121.251ZM114.559 38.4648V42.6758C115.837 42.6758 117.051 42.5952 118.426 42.3428L118.533 43.1807C117.008 43.4707 115.708 43.5244 114.29 43.5352H113.549V38.4648H114.559ZM127.823 46.6074C126.136 46.6074 124.955 45.6943 124.965 44.4268C124.955 43.4277 125.674 42.6113 126.587 42.4717V42.4287C125.793 42.2461 125.255 41.5371 125.255 40.6885C125.255 39.4961 126.34 38.6152 127.823 38.6152C129.295 38.6152 130.369 39.4961 130.379 40.6885C130.369 41.5371 129.832 42.2461 129.047 42.4287V42.4717C129.95 42.6113 130.67 43.4277 130.68 44.4268C130.67 45.6943 129.488 46.6074 127.823 46.6074ZM127.823 45.6299C128.833 45.6299 129.477 45.1035 129.477 44.3408C129.477 43.5352 128.779 42.9551 127.823 42.9551C126.856 42.9551 126.147 43.5352 126.169 44.3408C126.147 45.1035 126.792 45.6299 127.823 45.6299ZM127.823 42.0205C128.639 42.0205 129.219 41.5264 129.219 40.7959C129.219 40.0762 128.65 39.582 127.823 39.582C126.963 39.582 126.405 40.0654 126.405 40.7959C126.405 41.5264 126.996 42.0205 127.823 42.0205ZM139.375 37.7988V43.4385H138.354V42.9766H136.474V42.332H138.354V37.7988H139.375ZM131.35 41.3438C133.209 41.3545 135.572 41.333 137.645 41.1074L137.699 41.7627C136.791 41.8862 135.851 41.9614 134.928 42.0098V43.46H133.918V42.0527C133.048 42.0742 132.221 42.0796 131.469 42.0742L131.35 41.3438ZM139.375 43.7607V45.834H133.832V46.5752H139.665V47.3164H132.833V45.1572H138.365V44.4697H132.79V43.7607H139.375ZM134.476 37.96C135.905 37.96 136.872 38.5293 136.883 39.4102C136.872 40.3125 135.905 40.8496 134.476 40.8496C133.015 40.8496 132.059 40.3125 132.07 39.4102C132.059 38.5293 133.015 37.96 134.476 37.96ZM134.476 38.6475C133.585 38.6475 133.026 38.9482 133.026 39.4102C133.026 39.8721 133.585 40.1621 134.476 40.1621C135.346 40.1621 135.916 39.8721 135.916 39.4102C135.916 38.9482 135.346 38.6475 134.476 38.6475ZM143.497 46.5V45.6406L146.194 42.9229C147.042 42.0312 147.472 41.5371 147.472 40.8604C147.472 40.0977 146.849 39.6035 146.032 39.6035C145.173 39.6035 144.614 40.1514 144.614 40.9785H143.497C143.487 39.5605 144.571 38.6152 146.054 38.6152C147.558 38.6152 148.589 39.5605 148.6 40.8281C148.589 41.6982 148.181 42.3857 146.72 43.8252L145.141 45.4258V45.4902H148.729V46.5H143.497ZM152.557 46.6074C150.871 46.6074 149.689 45.6943 149.7 44.4268C149.689 43.4277 150.409 42.6113 151.322 42.4717V42.4287C150.527 42.2461 149.99 41.5371 149.99 40.6885C149.99 39.4961 151.075 38.6152 152.557 38.6152C154.029 38.6152 155.103 39.4961 155.114 40.6885C155.103 41.5371 154.566 42.2461 153.782 42.4287V42.4717C154.684 42.6113 155.404 43.4277 155.414 44.4268C155.404 45.6943 154.222 46.6074 152.557 46.6074ZM152.557 45.6299C153.567 45.6299 154.211 45.1035 154.211 44.3408C154.211 43.5352 153.513 42.9551 152.557 42.9551C151.59 42.9551 150.881 43.5352 150.903 44.3408C150.881 45.1035 151.526 45.6299 152.557 45.6299ZM152.557 42.0205C153.373 42.0205 153.954 41.5264 153.954 40.7959C153.954 40.0762 153.384 39.582 152.557 39.582C151.698 39.582 151.139 40.0654 151.139 40.7959C151.139 41.5264 151.73 42.0205 152.557 42.0205ZM158.835 38.1104C160.285 38.1211 161.348 39.0127 161.359 40.2695C161.348 41.5371 160.285 42.418 158.835 42.418C157.374 42.418 156.299 41.5371 156.299 40.2695C156.299 39.0127 157.374 38.1211 158.835 38.1104ZM158.835 38.9697C157.943 38.959 157.288 39.4854 157.298 40.2695C157.288 41.0645 157.943 41.5908 158.835 41.5908C159.715 41.5908 160.371 41.0645 160.371 40.2695C160.371 39.4854 159.715 38.959 158.835 38.9697ZM164.088 37.7881V42.6865H163.067V37.7881H164.088ZM164.088 43.127V45.5547H158.781V46.4785H164.41V47.2949H157.793V44.792H163.078V43.9434H157.76V43.127H164.088Z" fill="#2960C6"/>
<defs>
<linearGradient id="paint0_linear_1693_3209" x1="212.112" y1="70.6668" x2="205.001" y2="70.6668" gradientUnits="userSpaceOnUse">
<stop stop-color="#689BFF"/>
<stop offset="1" stop-color="#689BFF" stop-opacity="0.02"/>
</linearGradient>
<linearGradient id="paint1_linear_1693_3209" x1="206.704" y1="18.6668" x2="199.593" y2="18.6668" gradientUnits="userSpaceOnUse">
<stop stop-color="#689BFF"/>
<stop offset="1" stop-color="#689BFF" stop-opacity="0.02"/>
</linearGradient>
</defs>
</svg>
