<svg width="265" height="173" viewBox="0 0 265 173" fill="none" xmlns="http://www.w3.org/2000/svg">
<g filter="url(#filter0_d_1693_3245)">
<rect x="52" y="37" width="193" height="108" rx="10" fill="white" shape-rendering="crispEdges"/>
<path d="M79.3008 49.9648V50.8906C79.3008 51.8867 79.3008 52.9414 79.0078 54.3711L77.9062 54.2773C78.0234 53.709 78.0996 53.2051 78.1406 52.7305L71.8945 53.0234L71.7422 52.0859L78.1875 51.9102C78.1992 51.5527 78.1992 51.2188 78.1992 50.8906V50.8672H72.0117V49.9648H79.3008ZM80.4492 55.0156V55.9062H70.8984V55.0156H74.6836V53.5391H75.8086V55.0156H80.4492ZM79.5234 58.9297V59.832H72.082V56.7148H73.1953V58.9297H79.5234ZM90.2109 49.5078V57.3594H89.1562V49.5078H90.2109ZM88.1484 49.707V57.1016H87.0938V53.3398H85.793V52.4375H87.0938V49.707H88.1484ZM90.5156 58.8711V59.7734H83.2969V56.4922H84.4219V58.8711H90.5156ZM85.7227 50.3398V51.2422H82.793V52.5547H85.3125V53.4219H82.793V54.793C84.1758 54.7871 85.0957 54.752 86.168 54.5352L86.2734 55.4258C85.0664 55.6602 84.0703 55.707 82.4062 55.707H81.7266V50.3398H85.7227ZM101.238 57.7695V58.6836H91.6289V57.7695H101.238ZM100.348 51.1133V52.0156H96.9844C97.0312 53.5918 98.5723 54.8926 100.723 55.2383L100.277 56.1289C98.5371 55.8184 97.0957 54.9277 96.4219 53.6445C95.7363 54.9277 94.2949 55.8184 92.5664 56.1289L92.1328 55.2383C94.2598 54.8926 95.8008 53.5918 95.8594 52.0156H92.4961V51.1133H95.8711V49.7188H96.9727V51.1133H100.348ZM113.941 49.4961V59.9961H112.875V49.4961H113.941ZM111.809 49.7188V59.4688H110.754V54.125H109.125V53.2109H110.754V49.7188H111.809ZM108.094 52.4258C108.094 54.2188 108.82 56.0117 110.297 56.8672L109.629 57.6875C108.627 57.0898 107.936 56.0293 107.578 54.7578C107.197 56.1289 106.482 57.2949 105.457 57.9336L104.777 57.1016C106.266 56.1992 107.027 54.2891 107.027 52.4258V51.582H105.094V50.6797H109.898V51.582H108.094V52.4258ZM123.656 49.9297V53.5273H120.633V54.7461H124.875V55.6484H115.301V54.7461H119.531V53.5273H116.52V49.9297H123.656ZM117.609 50.8086V52.6367H122.555V50.8086H117.609ZM123.703 56.6445V59.9961H122.578V57.5234H116.367V56.6445H123.703ZM137.355 49.5078V57.2656H136.242V54.5352H133.945V55.5195H129.105V50.1992H130.219V51.9805H132.844V50.1992H133.945V51.3711H136.242V49.5078H137.355ZM137.59 58.8711V59.7734H130.5V56.5039H131.625V58.8711H137.59ZM130.219 54.6172H132.844V52.8359H130.219V54.6172ZM133.945 53.6328H136.242V52.2852H133.945V53.6328ZM147.727 49.5078V55.7188H146.613V54.4414H143.965V53.5273H146.613V52.25H144.07C143.396 53.9375 141.82 55.127 139.547 55.7773L139.102 54.9102C141.586 54.1953 143.039 52.8652 143.238 51.1719H139.641V50.2578H144.445C144.445 50.6445 144.404 51.0195 144.34 51.3711H146.613V49.5078H147.727ZM144.27 55.8359C146.391 55.8359 147.785 56.6094 147.797 57.8867C147.785 59.1641 146.391 59.9492 144.27 59.9492C142.113 59.9492 140.73 59.1641 140.73 57.8867C140.73 56.6094 142.113 55.8359 144.27 55.8359ZM144.27 56.7148C142.77 56.7148 141.832 57.1367 141.832 57.8867C141.832 58.625 142.77 59.0586 144.27 59.0586C145.746 59.0586 146.672 58.625 146.684 57.8867C146.672 57.1367 145.746 56.7148 144.27 56.7148Z" fill="#393939"/>
<path d="M220.526 51.1125L214.125 57.5125C213.934 57.7028 213.81 57.9494 213.771 58.2156L213.426 60.5744L215.785 60.2288C216.052 60.1896 216.298 60.0656 216.488 59.875L222.888 53.475M220.526 51.1125L221.919 49.7188C222.012 49.6259 222.122 49.5522 222.243 49.5019C222.365 49.4517 222.495 49.4258 222.626 49.4258C222.757 49.4258 222.887 49.4517 223.009 49.5019C223.13 49.5522 223.24 49.6259 223.333 49.7188L224.282 50.6675C224.375 50.7604 224.449 50.8706 224.499 50.992C224.549 51.1133 224.575 51.2434 224.575 51.3747C224.575 51.506 224.549 51.6361 224.499 51.7574C224.449 51.8788 224.375 51.989 224.282 52.0819L222.888 53.475M220.526 51.1125L222.888 53.475" stroke="#393939" stroke-linecap="round" stroke-linejoin="round"/>
<line x1="52" y1="72.6" x2="245" y2="72.6" stroke="#D9D9D9" stroke-width="0.8"/>
<path d="M79.3008 85.9648V86.8906C79.3008 87.8867 79.3008 88.9414 79.0078 90.3711L77.9062 90.2773C78.0234 89.709 78.0996 89.2051 78.1406 88.7305L71.8945 89.0234L71.7422 88.0859L78.1875 87.9102C78.1992 87.5527 78.1992 87.2188 78.1992 86.8906V86.8672H72.0117V85.9648H79.3008ZM80.4492 91.0156V91.9062H70.8984V91.0156H74.6836V89.5391H75.8086V91.0156H80.4492ZM79.5234 94.9297V95.832H72.082V92.7148H73.1953V94.9297H79.5234ZM90.2109 85.5078V93.3594H89.1562V85.5078H90.2109ZM88.1484 85.707V93.1016H87.0938V89.3398H85.793V88.4375H87.0938V85.707H88.1484ZM90.5156 94.8711V95.7734H83.2969V92.4922H84.4219V94.8711H90.5156ZM85.7227 86.3398V87.2422H82.793V88.5547H85.3125V89.4219H82.793V90.793C84.1758 90.7871 85.0957 90.752 86.168 90.5352L86.2734 91.4258C85.0664 91.6602 84.0703 91.707 82.4062 91.707H81.7266V86.3398H85.7227ZM101.238 93.7695V94.6836H91.6289V93.7695H101.238ZM100.348 87.1133V88.0156H96.9844C97.0312 89.5918 98.5723 90.8926 100.723 91.2383L100.277 92.1289C98.5371 91.8184 97.0957 90.9277 96.4219 89.6445C95.7363 90.9277 94.2949 91.8184 92.5664 92.1289L92.1328 91.2383C94.2598 90.8926 95.8008 89.5918 95.8594 88.0156H92.4961V87.1133H95.8711V85.7188H96.9727V87.1133H100.348ZM108.375 85.9766C109.957 85.9766 111.105 86.8555 111.105 88.1562C111.105 89.4453 109.957 90.3359 108.375 90.3242C106.793 90.3359 105.668 89.4453 105.668 88.1562C105.668 86.8555 106.793 85.9766 108.375 85.9766ZM108.375 86.8789C107.426 86.8789 106.734 87.3828 106.746 88.1562C106.734 88.918 107.426 89.4219 108.375 89.4102C109.348 89.4219 110.039 88.918 110.039 88.1562C110.039 87.3828 109.348 86.8789 108.375 86.8789ZM113.66 85.5078V95.9961H112.559V85.5078H113.66ZM104.918 91.1445C106.852 91.1445 109.535 91.0977 111.832 90.7578L111.914 91.5898C110.959 91.7715 109.963 91.8828 108.996 91.9531V95.668H107.883V92.0117C106.863 92.0586 105.902 92.0645 105.07 92.0703L104.918 91.1445ZM123.996 85.4961V95.9961H122.883V85.4961H123.996ZM119.25 88.8711C119.25 90.5469 120.363 92.2578 121.992 92.9492L121.383 93.8047C120.176 93.2773 119.209 92.1875 118.723 90.8633C118.248 92.2637 117.299 93.4297 116.074 93.9805L115.453 93.125C117.082 92.3984 118.16 90.6289 118.16 88.8711V88.1797H115.77V87.2891H118.148V85.707H119.25V87.2891H121.605V88.1797H119.25V88.8711ZM137.355 85.5078V93.2656H136.242V90.5352H133.945V91.5195H129.105V86.1992H130.219V87.9805H132.844V86.1992H133.945V87.3711H136.242V85.5078H137.355ZM137.59 94.8711V95.7734H130.5V92.5039H131.625V94.8711H137.59ZM130.219 90.6172H132.844V88.8359H130.219V90.6172ZM133.945 89.6328H136.242V88.2852H133.945V89.6328ZM147.727 85.5078V91.7188H146.613V90.4414H143.965V89.5273H146.613V88.25H144.07C143.396 89.9375 141.82 91.127 139.547 91.7773L139.102 90.9102C141.586 90.1953 143.039 88.8652 143.238 87.1719H139.641V86.2578H144.445C144.445 86.6445 144.404 87.0195 144.34 87.3711H146.613V85.5078H147.727ZM144.27 91.8359C146.391 91.8359 147.785 92.6094 147.797 93.8867C147.785 95.1641 146.391 95.9492 144.27 95.9492C142.113 95.9492 140.73 95.1641 140.73 93.8867C140.73 92.6094 142.113 91.8359 144.27 91.8359ZM144.27 92.7148C142.77 92.7148 141.832 93.1367 141.832 93.8867C141.832 94.625 142.77 95.0586 144.27 95.0586C145.746 95.0586 146.672 94.625 146.684 93.8867C146.672 93.1367 145.746 92.7148 144.27 92.7148Z" fill="#393939"/>
<path d="M219.022 91.4265C219 91.37 218.994 91.3081 219.006 91.2485C219.019 91.1889 219.048 91.1342 219.091 91.0912C219.134 91.0481 219.189 91.0187 219.248 91.0064C219.308 90.9941 219.37 90.9996 219.426 91.0221L225.051 93.2096C225.112 93.2332 225.163 93.2749 225.199 93.329C225.234 93.3831 225.252 93.4469 225.25 93.5116C225.248 93.5763 225.226 93.6387 225.186 93.6902C225.147 93.7417 225.093 93.7797 225.031 93.799L222.878 94.4665C222.781 94.4965 222.693 94.5498 222.621 94.6217C222.549 94.6936 222.496 94.7819 222.466 94.879L221.799 97.0309C221.78 97.0927 221.742 97.147 221.69 97.1862C221.639 97.2255 221.576 97.2478 221.512 97.2501C221.447 97.2523 221.383 97.2344 221.329 97.1989C221.275 97.1633 221.233 97.1118 221.21 97.0515L219.022 91.4265Z" stroke="#4D4D4D" stroke-linecap="round" stroke-linejoin="round"/>
<path d="M224.625 90.375V86.625C224.625 86.2935 224.493 85.9755 224.259 85.7411C224.024 85.5067 223.707 85.375 223.375 85.375H214.625C214.293 85.375 213.976 85.5067 213.741 85.7411C213.507 85.9755 213.375 86.2935 213.375 86.625V95.375C213.375 95.7065 213.507 96.0245 213.741 96.2589C213.976 96.4933 214.293 96.625 214.625 96.625H218.375" stroke="#4D4D4D" stroke-linecap="round" stroke-linejoin="round"/>
<line x1="52" y1="108.6" x2="245" y2="108.6" stroke="#D9D9D9" stroke-width="0.8"/>
<path d="M79.0586 121.766V122.609H77.5352V124.438H79.0117V125.27H75.7188V126.172H79.9609V127.051H70.3867V126.172H74.6055V125.27H71.3125V124.438H72.8008V122.609H71.2656V121.766H79.0586ZM78.7539 127.801V130.168H72.6367V131.047H79.0469V131.891H71.5469V129.383H77.6523V128.609H71.5352V127.801H78.7539ZM73.9023 124.438H76.4219V122.609H73.9023V124.438ZM86.0898 122.469V123.395H82.3984V128.516C84.1562 128.51 85.3691 128.445 86.7461 128.176L86.875 129.09C85.3633 129.371 84.0859 129.441 82.1055 129.441H81.2734V122.469H86.0898ZM89.5234 121.496V132.02H88.4102V126.172H85.4922V125.246H88.4102V121.496H89.5234ZM100.164 121.496V131.996H99.0977V121.496H100.164ZM98.0312 121.695V131.48H96.9648V126.418H95.7812C95.6875 128.469 94.8086 129.746 93.5078 129.734C92.1367 129.746 91.2461 128.305 91.2461 126.031C91.2461 123.758 92.1367 122.328 93.5078 122.34C94.7852 122.328 95.6523 123.541 95.7812 125.516H96.9648V121.695H98.0312ZM93.5078 123.383C92.7461 123.383 92.2773 124.355 92.2773 126.031C92.2773 127.707 92.7461 128.68 93.5078 128.68C94.2812 128.68 94.7617 127.707 94.7617 126.031C94.7617 124.355 94.2812 123.383 93.5078 123.383ZM105.285 124.168C105.285 126.09 106.363 128 107.969 128.727L107.289 129.617C106.094 129.02 105.197 127.83 104.734 126.395C104.271 127.906 103.352 129.184 102.145 129.816L101.441 128.914C103.07 128.141 104.16 126.113 104.16 124.168V122.375H105.285V124.168ZM110.254 121.496V132.02H109.152V125.891H106.809V124.988H109.152V121.496H110.254ZM118.445 123.172C118.445 124.543 119.406 125.82 121 126.348L120.426 127.215C119.242 126.822 118.369 125.984 117.918 124.93C117.455 126.084 116.559 126.969 115.316 127.402L114.742 126.523C116.395 125.961 117.344 124.602 117.344 123.078V122.035H118.445V123.172ZM123.051 121.496V124.203H124.574V125.141H123.051V127.859H121.938V121.496H123.051ZM123.051 128.34V131.996H121.938V129.242H116.113V128.34H123.051ZM134.184 121.496V131.996H133.117V121.496H134.184ZM132.051 121.719V131.469H130.996V126.125H129.367V125.211H130.996V121.719H132.051ZM128.336 124.426C128.336 126.219 129.062 128.012 130.539 128.867L129.871 129.688C128.869 129.09 128.178 128.029 127.82 126.758C127.439 128.129 126.725 129.295 125.699 129.934L125.02 129.102C126.508 128.199 127.27 126.289 127.27 124.426V123.582H125.336V122.68H130.141V123.582H128.336V124.426Z" fill="#FF2828"/>
<path d="M218.328 121.047V121.281H220.672V121.047C220.672 120.736 220.548 120.438 220.329 120.218C220.109 119.998 219.811 119.875 219.5 119.875C219.189 119.875 218.891 119.998 218.671 120.218C218.452 120.438 218.328 120.736 218.328 121.047ZM217.391 121.281V121.047C217.391 120.487 217.613 119.951 218.008 119.555C218.404 119.16 218.941 118.938 219.5 118.938C220.059 118.938 220.596 119.16 220.992 119.555C221.387 119.951 221.609 120.487 221.609 121.047V121.281H225.125C225.249 121.281 225.369 121.331 225.456 121.419C225.544 121.506 225.594 121.626 225.594 121.75C225.594 121.874 225.544 121.994 225.456 122.081C225.369 122.169 225.249 122.219 225.125 122.219H224.418L223.531 129.985C223.466 130.557 223.192 131.085 222.763 131.468C222.333 131.851 221.777 132.063 221.202 132.062H217.798C217.223 132.063 216.667 131.851 216.237 131.468C215.808 131.085 215.534 130.557 215.469 129.985L214.582 122.219H213.875C213.751 122.219 213.631 122.169 213.544 122.081C213.456 121.994 213.406 121.874 213.406 121.75C213.406 121.626 213.456 121.506 213.544 121.419C213.631 121.331 213.751 121.281 213.875 121.281H217.391ZM216.401 129.878C216.44 130.221 216.604 130.538 216.861 130.768C217.119 130.998 217.452 131.125 217.798 131.125H221.202C221.547 131.125 221.881 130.998 222.138 130.768C222.396 130.538 222.56 130.221 222.599 129.878L223.475 122.219H215.525L216.401 129.878ZM218.094 123.859C218.218 123.859 218.337 123.909 218.425 123.997C218.513 124.085 218.562 124.204 218.562 124.328V129.016C218.562 129.14 218.513 129.259 218.425 129.347C218.337 129.435 218.218 129.484 218.094 129.484C217.969 129.484 217.85 129.435 217.762 129.347C217.674 129.259 217.625 129.14 217.625 129.016V124.328C217.625 124.204 217.674 124.085 217.762 123.997C217.85 123.909 217.969 123.859 218.094 123.859ZM221.375 124.328C221.375 124.204 221.326 124.085 221.238 123.997C221.15 123.909 221.031 123.859 220.906 123.859C220.782 123.859 220.663 123.909 220.575 123.997C220.487 124.085 220.438 124.204 220.438 124.328V129.016C220.438 129.14 220.487 129.259 220.575 129.347C220.663 129.435 220.782 129.484 220.906 129.484C221.031 129.484 221.15 129.435 221.238 129.347C221.326 129.259 221.375 129.14 221.375 129.016V124.328Z" fill="#FF2828"/>
</g>
<circle cx="238.5" cy="11.5" r="11.5" fill="#6E8ECE" fill-opacity="0.6"/>
<circle cx="233.5" cy="11.5" r="1.5" transform="rotate(-90 233.5 11.5)" fill="white"/>
<circle cx="238.5" cy="11.5" r="1.5" transform="rotate(-90 238.5 11.5)" fill="white"/>
<circle cx="243.5" cy="11.5" r="1.5" transform="rotate(-90 243.5 11.5)" fill="white"/>
<path d="M10.251 159.212V160.215C10.251 161.294 10.251 162.437 9.93359 163.985L8.74023 163.884C8.86719 163.268 8.94971 162.722 8.99414 162.208L2.22754 162.525L2.0625 161.51L9.04492 161.319C9.05762 160.932 9.05762 160.57 9.05762 160.215V160.189H2.35449V159.212H10.251ZM11.4951 164.684V165.648H1.14844V164.684H5.24902V163.084H6.46777V164.684H11.4951ZM10.4922 168.924V169.901H2.43066V166.524H3.63672V168.924H10.4922ZM22.0703 158.717V167.223H20.9277V158.717H22.0703ZM19.8359 158.933V166.943H18.6934V162.868H17.2842V161.891H18.6934V158.933H19.8359ZM22.4004 168.86V169.838H14.5801V166.283H15.7988V168.86H22.4004ZM17.208 159.618V160.596H14.0342V162.018H16.7637V162.957H14.0342V164.442C15.5322 164.436 16.5288 164.398 17.6904 164.163L17.8047 165.128C16.4971 165.382 15.418 165.433 13.6152 165.433H12.8789V159.618H17.208ZM34.0166 167.667V168.657H23.6064V167.667H34.0166ZM33.0518 160.456V161.434H29.4082C29.459 163.141 31.1284 164.55 33.458 164.925L32.9756 165.89C31.0903 165.553 29.5288 164.588 28.7988 163.198C28.0562 164.588 26.4946 165.553 24.6221 165.89L24.1523 164.925C26.4565 164.55 28.126 163.141 28.1895 161.434H24.5459V160.456H28.2021V158.945H29.3955V160.456H33.0518ZM45.2393 163.922V164.849H34.8291V163.922H45.2393ZM43.957 165.648V168.149H37.2793V169.089H44.3125V169.939H36.0732V167.35H42.7637V166.512H36.0605V165.648H43.957ZM43.9316 158.996V161.459H37.3555V162.322H44.1221V163.173H36.1621V160.659H42.7256V159.847H36.1367V158.996H43.9316ZM53.2119 162.056C53.2119 163.858 54.3926 165.864 56.1191 166.677L55.4336 167.616C54.1577 167 53.1484 165.718 52.6406 164.227C52.1138 165.858 51.0474 167.261 49.7461 167.908L49.0352 166.956C50.7617 166.131 52.0186 163.985 52.0186 162.056V160.85H49.4541V159.847H55.6875V160.85H53.2119V162.056ZM58.1123 158.704V163.211H59.9404V164.227H58.1123V170.079H56.9062V158.704H58.1123ZM70.8838 165.128V166.118H68.2432V170.079H67.0244V166.118H64.3076V170.079H63.0635V166.118H60.4736V165.128H70.8838ZM65.6533 159.136C68.0527 159.136 69.7031 160.113 69.7031 161.649C69.7031 163.16 68.0527 164.125 65.6533 164.112C63.2412 164.125 61.6035 163.16 61.6035 161.649C61.6035 160.113 63.2412 159.136 65.6533 159.136ZM65.6533 160.101C63.9648 160.113 62.835 160.697 62.8477 161.649C62.835 162.576 63.9648 163.16 65.6533 163.16C67.3418 163.16 68.4717 162.576 68.4717 161.649C68.4717 160.697 67.3418 160.113 65.6533 160.101ZM82.1191 164.468V165.445H71.709V164.468H76.3174V163.516H73.042V160.748H79.6055V159.859H73.0166V158.92H80.8115V161.637H74.2354V162.576H81.04V163.516H77.5107V164.468H82.1191ZM74.2861 165.966V166.956H79.6309V165.966H80.8242V169.939H73.0801V165.966H74.2861ZM74.2861 168.987H79.6309V167.883H74.2861V168.987ZM92.7324 158.704V170.079H91.5898V158.704H92.7324ZM90.333 158.996V169.521H89.1904V164.239H86.9688C86.2896 165.56 85.2104 166.715 83.6045 167.654L82.9189 166.791C85.3311 165.356 86.4927 163.446 86.7021 161.104H83.4521V160.113H87.8955C87.8892 161.224 87.7368 162.284 87.3877 163.274H89.1904V158.996H90.333ZM102.152 165.407V168.035H99.6133V169.063C100.889 169.057 101.575 169.032 102.419 168.886L102.508 169.762C101.518 169.952 100.743 169.965 99.1055 169.965H98.4834V167.197H101.022V166.271H98.4453V165.407H102.152ZM106.558 165.407V169.965H102.851V165.407H106.558ZM103.866 166.283V169.076H105.529V166.283H103.866ZM107.738 163.617V164.582H97.3662V163.617H101.937V162.843C99.7529 162.735 98.4834 162.024 98.4834 160.837C98.4834 159.555 99.9941 158.831 102.546 158.831C105.085 158.831 106.608 159.555 106.608 160.837C106.608 162.03 105.313 162.741 103.117 162.855V163.617H107.738ZM102.546 159.732C100.73 159.745 99.7275 160.139 99.7402 160.837C99.7275 161.548 100.73 161.929 102.546 161.941C104.349 161.929 105.364 161.548 105.364 160.837C105.364 160.139 104.349 159.745 102.546 159.732ZM118.06 158.704V170.079H116.841V158.704H118.06ZM114.67 159.923C114.67 163.249 113.248 166.144 109.351 168.01L108.716 167.032C111.744 165.591 113.216 163.541 113.451 160.888H109.262V159.923H114.67ZM129.041 159.796V160.913C129.041 162.322 129.041 163.896 128.609 166.22L127.391 166.093C127.835 163.896 127.835 162.284 127.835 160.913V160.773H120.929V159.796H129.041ZM130.209 167.54V168.543H119.837V167.54H123.785V163.528H124.979V167.54H130.209ZM133.116 168.124L132.101 171.628H131.021L131.694 168.124H133.116ZM147.335 158.704V170.079H146.18V158.704H147.335ZM145.024 158.945V169.508H143.882V163.719H142.117V162.729H143.882V158.945H145.024ZM141 161.878C141 163.82 141.787 165.763 143.387 166.689L142.663 167.578C141.578 166.931 140.829 165.782 140.441 164.404C140.029 165.89 139.254 167.153 138.144 167.845L137.407 166.943C139.02 165.966 139.845 163.896 139.845 161.878V160.964H137.75V159.986H142.955V160.964H141V161.878ZM157.859 159.174V163.071H154.584V164.392H159.18V165.369H148.808V164.392H153.391V163.071H150.128V159.174H157.859ZM151.309 160.126V162.106H156.666V160.126H151.309ZM157.91 166.448V170.079H156.691V167.4H149.963V166.448H157.91ZM165.223 158.895C167.787 158.895 169.285 159.58 169.285 160.85C169.285 162.119 167.787 162.817 165.223 162.817C162.658 162.817 161.16 162.119 161.16 160.85C161.16 159.58 162.658 158.895 165.223 158.895ZM165.223 159.783C163.407 159.783 162.404 160.177 162.417 160.85C162.404 161.548 163.407 161.916 165.223 161.916C167.038 161.916 168.041 161.548 168.041 160.85C168.041 160.177 167.038 159.783 165.223 159.783ZM170.415 163.516V164.48H160.043V163.516H170.415ZM169.107 165.356V168.022H162.48V169.038H169.425V169.965H161.3V167.146H167.914V166.258H161.287V165.356H169.107ZM183.936 158.717V167.121H182.729V164.163H180.241V165.229H174.998V159.466H176.204V161.396H179.048V159.466H180.241V160.735H182.729V158.717H183.936ZM184.189 168.86V169.838H176.509V166.296H177.728V168.86H184.189ZM176.204 164.252H179.048V162.322H176.204V164.252ZM180.241 163.186H182.729V161.726H180.241V163.186ZM195.171 158.717V165.445H193.965V164.062H191.096V163.071H193.965V161.688H191.21C190.48 163.516 188.772 164.804 186.31 165.509L185.827 164.569C188.519 163.795 190.093 162.354 190.309 160.52H186.411V159.529H191.616C191.616 159.948 191.572 160.354 191.502 160.735H193.965V158.717H195.171ZM191.426 165.572C193.724 165.572 195.234 166.41 195.247 167.794C195.234 169.178 193.724 170.028 191.426 170.028C189.09 170.028 187.592 169.178 187.592 167.794C187.592 166.41 189.09 165.572 191.426 165.572ZM191.426 166.524C189.801 166.524 188.785 166.981 188.785 167.794C188.785 168.594 189.801 169.063 191.426 169.063C193.025 169.063 194.028 168.594 194.041 167.794C194.028 166.981 193.025 166.524 191.426 166.524ZM202.547 160.583V161.561H196.897V160.583H199.132V159.034H200.325V160.583H202.547ZM199.729 162.246C201.176 162.246 202.191 163.325 202.204 164.861C202.191 166.41 201.176 167.502 199.729 167.502C198.307 167.502 197.253 166.41 197.266 164.861C197.253 163.325 198.307 162.246 199.729 162.246ZM199.729 163.249C198.903 163.249 198.332 163.922 198.332 164.861C198.332 165.826 198.903 166.474 199.729 166.474C200.541 166.474 201.138 165.826 201.138 164.861C201.138 163.922 200.541 163.249 199.729 163.249ZM206.66 158.704V170.079H205.518V164.43H204.21V169.546H203.067V158.958H204.21V163.439H205.518V158.704H206.66ZM218.568 167.667V168.67H208.158V167.667H212.741V165.331H209.352V159.479H210.558V161.434H216.144V159.479H217.337V165.331H213.935V167.667H218.568ZM210.558 164.354H216.144V162.411H210.558V164.354ZM222.859 161.814C222.859 163.63 223.621 165.572 225.145 166.499L224.472 167.426C223.405 166.785 222.682 165.648 222.301 164.328C221.875 165.775 221.095 167.007 219.99 167.68L219.241 166.778C220.854 165.813 221.691 163.808 221.691 161.865V159.745H222.859V161.814ZM229.182 158.704V170.079H228.026V158.704H229.182ZM226.82 158.92V169.521H225.678V163.706H223.913V162.703H225.678V158.92H226.82ZM241.039 167.654V168.657H230.629V167.654H233.117V164.684C232.184 164.169 231.619 163.351 231.619 162.335C231.619 160.545 233.371 159.364 235.809 159.364C238.259 159.364 240.011 160.545 240.011 162.335C240.011 163.338 239.465 164.144 238.551 164.658V167.654H241.039ZM235.809 160.329C234.019 160.329 232.787 161.104 232.787 162.335C232.787 163.554 234.019 164.354 235.809 164.354C237.586 164.354 238.843 163.554 238.843 162.335C238.843 161.104 237.586 160.329 235.809 160.329ZM234.311 167.654H237.332V165.115C236.869 165.236 236.354 165.293 235.809 165.293C235.275 165.293 234.768 165.236 234.311 165.128V167.654ZM243.959 159.809L243.845 166.347H242.588L242.474 159.809H243.959ZM243.223 169.089C242.728 169.089 242.309 168.683 242.321 168.188C242.309 167.692 242.728 167.286 243.223 167.286C243.705 167.286 244.124 167.692 244.124 168.188C244.124 168.683 243.705 169.089 243.223 169.089Z" fill="white"/>
<path d="M208.095 8.15234L225.087 8.15234C225.798 8.15234 226.481 8.40576 226.984 8.85685C227.487 9.30794 227.77 9.91975 227.77 10.5577C227.77 11.1956 227.487 11.8074 226.984 12.2585C226.481 12.7096 225.798 12.963 225.087 12.963L209.884 12.963M210.778 12.963H214.355C215.067 12.963 215.749 13.2164 216.252 13.6675C216.756 14.1186 217.038 14.7304 217.038 15.3684C217.038 16.0063 216.756 16.6181 216.252 17.0692C215.749 17.5203 215.067 17.7737 214.355 17.7737H209.884M212.567 17.7737C213.278 17.7737 213.961 18.0271 214.464 18.4782C214.967 18.9293 215.25 19.5411 215.25 20.179C215.25 20.817 214.967 21.4288 214.464 21.8799C213.961 22.331 213.278 22.5844 212.567 22.5844H209.884" stroke="white" stroke-width="1.49312" stroke-linecap="round" stroke-linejoin="round"/>
<path d="M209.99 22.5836C210.701 22.5836 211.384 22.837 211.887 23.2881C212.39 23.7392 212.673 24.351 212.673 24.9889C212.673 25.6268 212.39 26.2386 211.887 26.6897C211.384 27.1408 210.701 27.3942 209.99 27.3942H202.73C199.884 27.3942 197.154 26.3806 195.142 24.5762C193.129 22.7718 191.999 20.3246 191.999 17.7729V14.5657V14.8993C191.998 13.3059 192.439 11.7374 193.282 10.3346C194.125 8.93177 195.343 7.73861 196.828 6.86224L197.364 6.54795C198.22 6.04764 202.234 3.95354 206.68 3.04995C207.517 2.8802 209.407 3.19756 209.407 3.19756C210.129 3.57372 209.848 3.42959 210.414 3.72887C211.66 4.38736 213.206 7.30286 213.115 7.96506C210.432 7.95911 210.88 7.92227 210.88 7.92227L208.096 8.15151" stroke="white" stroke-width="1.49312" stroke-linecap="round" stroke-linejoin="round"/>
<defs>
<filter id="filter0_d_1693_3245" x="32" y="17" width="233" height="148" filterUnits="userSpaceOnUse" color-interpolation-filters="sRGB">
<feFlood flood-opacity="0" result="BackgroundImageFix"/>
<feColorMatrix in="SourceAlpha" type="matrix" values="0 0 0 0 0 0 0 0 0 0 0 0 0 0 0 0 0 0 127 0" result="hardAlpha"/>
<feOffset/>
<feGaussianBlur stdDeviation="10"/>
<feComposite in2="hardAlpha" operator="out"/>
<feColorMatrix type="matrix" values="0 0 0 0 0 0 0 0 0 0 0 0 0 0 0 0 0 0 0.25 0"/>
<feBlend mode="normal" in2="BackgroundImageFix" result="effect1_dropShadow_1693_3245"/>
<feBlend mode="normal" in="SourceGraphic" in2="effect1_dropShadow_1693_3245" result="shape"/>
</filter>
</defs>
</svg>
