<svg width="17" height="13" viewBox="0 0 17 13" fill="none" xmlns="http://www.w3.org/2000/svg">
<g id="Group 142">
<path id="Vector" opacity="0.7" d="M6.7158 5.29409L1.7158 0.294092C1.62256 0.200853 1.51187 0.126893 1.39005 0.0764322C1.26823 0.0259719 1.13766 0 1.0058 0C0.739497 0 0.484102 0.105788 0.295798 0.294092C0.20256 0.38733 0.128599 0.498021 0.0781384 0.619843C0.027678 0.741665 0.00170708 0.872233 0.00170708 1.00409C0.00170708 1.27039 0.107495 1.52579 0.295798 1.71409L4.5958 6.00409L0.295798 10.2941C0.20207 10.3871 0.127676 10.4977 0.0769072 10.6195C0.0261385 10.7414 0 10.8721 0 11.0041C0 11.1361 0.0261385 11.2668 0.0769072 11.3887C0.127676 11.5105 0.20207 11.6211 0.295798 11.7141C0.388761 11.8078 0.499362 11.8822 0.621222 11.933C0.743081 11.9838 0.873786 12.0099 1.0058 12.0099C1.13781 12.0099 1.26852 11.9838 1.39038 11.933C1.51223 11.8822 1.62284 11.8078 1.7158 11.7141L6.7158 6.71409C6.80953 6.62113 6.88392 6.51053 6.93469 6.38867C6.98546 6.26681 7.0116 6.1361 7.0116 6.00409C7.0116 5.87208 6.98546 5.74137 6.93469 5.61951C6.88392 5.49766 6.80953 5.38705 6.7158 5.29409Z" fill="white"/>
<path id="Vector_2" d="M15.7217 5.298L10.7217 0.297998C10.6284 0.204759 10.5177 0.130799 10.3959 0.0803385C10.2741 0.0298782 10.1435 0.00390625 10.0117 0.00390625C9.74536 0.00390625 9.48996 0.109694 9.30166 0.297998C9.20842 0.391236 9.13446 0.501927 9.084 0.623749C9.03354 0.745571 9.00757 0.876139 9.00757 1.008C9.00757 1.2743 9.11335 1.52969 9.30166 1.718L13.6017 6.008L9.30166 10.298C9.20793 10.391 9.13354 10.5016 9.08277 10.6234C9.032 10.7453 9.00586 10.876 9.00586 11.008C9.00586 11.14 9.032 11.2707 9.08277 11.3926C9.13354 11.5144 9.20793 11.625 9.30166 11.718C9.39462 11.8117 9.50522 11.8861 9.62708 11.9369C9.74894 11.9877 9.87965 12.0138 10.0117 12.0138C10.1437 12.0138 10.2744 11.9877 10.3962 11.9369C10.5181 11.8861 10.6287 11.8117 10.7217 11.718L15.7217 6.718C15.8154 6.62503 15.8898 6.51443 15.9405 6.39257C15.9913 6.27072 16.0175 6.14001 16.0175 6.008C16.0175 5.87599 15.9913 5.74528 15.9405 5.62342C15.8898 5.50156 15.8154 5.39096 15.7217 5.298Z" fill="white"/>
</g>
</svg>
