<svg width="14" height="13" viewBox="0 0 14 13" fill="none" xmlns="http://www.w3.org/2000/svg">
<path d="M1.4 0C1.0287 0 0.672601 0.148918 0.410051 0.413993C0.1475 0.679069 0 1.03859 0 1.41346L0 10.8365C0 11.2114 0.1475 11.5709 0.410051 11.836C0.672601 12.1011 1.0287 12.25 1.4 12.25H12.6C12.9713 12.25 13.3274 12.1011 13.5899 11.836C13.8525 11.5709 14 11.2114 14 10.8365V3.29808C14 2.9232 13.8525 2.56368 13.5899 2.29861C13.3274 2.03353 12.9713 1.88462 12.6 1.88462H7.1932L5.32653 0H1.4Z" fill="#2960C6"/>
</svg>
