<svg width="15" height="14" viewBox="0 0 15 14" fill="none" xmlns="http://www.w3.org/2000/svg">
<path d="M12.5894 14H5.08943C4.45006 14 3.83689 13.7629 3.38479 13.341C2.9327 12.919 2.67871 12.3467 2.67871 11.75V4.75C2.67871 4.15326 2.9327 3.58097 3.38479 3.15901C3.83689 2.73705 4.45006 2.5 5.08943 2.5H12.5894C13.2288 2.5 13.842 2.73705 14.2941 3.15901C14.7462 3.58097 15.0001 4.15326 15.0001 4.75V11.75C15.0001 12.3467 14.7462 12.919 14.2941 13.341C13.842 13.7629 13.2288 14 12.5894 14Z" fill="#2960C6"/>
<path d="M4.28571 1.5H12.1835C12.0168 1.06164 11.7089 0.682148 11.302 0.413589C10.8951 0.145031 10.4091 0.000561565 9.91071 0H2.41071C1.77135 0 1.15818 0.237053 0.706082 0.65901C0.253985 1.08097 0 1.65326 0 2.25V9.25C0.000601677 9.71515 0.155391 10.1687 0.443132 10.5485C0.730873 10.9283 1.13747 11.2157 1.60714 11.3713V4C1.60714 3.33696 1.88935 2.70107 2.39168 2.23223C2.89401 1.76339 3.57531 1.5 4.28571 1.5Z" fill="#2960C6"/>
</svg>
