<svg width="34" height="34" viewBox="0 0 34 34" fill="none" xmlns="http://www.w3.org/2000/svg">
<rect x="0.75" y="0.75" width="32.5" height="32.5" rx="9.25" fill="#FCFCFC" fill-opacity="0.4"/>
<rect x="0.75" y="0.75" width="32.5" height="32.5" rx="9.25" stroke="#FCFCFC" stroke-width="1.5"/>
<path d="M14.7508 19.2513L19.2508 14.7507M16.2508 12.5004L16.5981 12.0984C17.3014 11.395 18.2554 10.9999 19.25 11C20.2446 11.0001 21.1985 11.3953 21.9018 12.0988C22.605 12.8022 23.0001 13.7562 23 14.751C22.9999 15.7457 22.6047 16.6997 21.9014 17.4031L21.5009 17.7511M17.7508 21.5016L17.4531 21.9022C16.7413 22.6056 15.781 23 14.7804 23C13.7798 23 12.8195 22.6056 12.1078 21.9022C11.7568 21.5554 11.4782 21.1425 11.2881 20.6872C11.0979 20.232 11 19.7436 11 19.2502C11 18.7568 11.0979 18.2684 11.2881 17.8132C11.4782 17.3579 11.7568 16.945 12.1078 16.5982L12.5008 16.2509" stroke="#FCFCFC" stroke-width="1.5" stroke-linecap="round" stroke-linejoin="round"/>
</svg>
