<svg width="15" height="15" viewBox="0 0 15 15" fill="none" xmlns="http://www.w3.org/2000/svg">
<path d="M13.25 7V3.25C13.25 2.91848 13.1183 2.60054 12.8839 2.36612C12.6495 2.1317 12.3315 2 12 2H3.25C2.91848 2 2.60054 2.1317 2.36612 2.36612C2.1317 2.60054 2 2.91848 2 3.25V12C2 12.3315 2.1317 12.6495 2.36612 12.8839C2.60054 13.1183 2.91848 13.25 3.25 13.25H7M7.64625 8.05063C7.62372 7.9941 7.61825 7.93221 7.63052 7.87262C7.64279 7.81302 7.67227 7.75832 7.71529 7.71529C7.75832 7.67227 7.81302 7.64279 7.87262 7.63052C7.93221 7.61825 7.9941 7.62372 8.05063 7.64625L13.6756 9.83375C13.7359 9.85732 13.7874 9.89903 13.823 9.95313C13.8586 10.0072 13.8765 10.071 13.8742 10.1358C13.8719 10.2005 13.8496 10.2629 13.8104 10.3143C13.7711 10.3658 13.7168 10.4038 13.655 10.4231L11.5025 11.0906C11.4054 11.1207 11.3171 11.1739 11.2452 11.2458C11.1733 11.3177 11.12 11.406 11.09 11.5031L10.4231 13.655C10.4038 13.7168 10.3658 13.7711 10.3143 13.8104C10.2629 13.8496 10.2005 13.8719 10.1358 13.8742C10.071 13.8765 10.0072 13.8586 9.95313 13.823C9.89903 13.7874 9.85732 13.7359 9.83375 13.6756L7.64625 8.05063Z" stroke="#4D4D4D" stroke-linecap="round" stroke-linejoin="round"/>
</svg>
