<svg width="15" height="15" viewBox="0 0 15 15" fill="none" xmlns="http://www.w3.org/2000/svg">
<path d="M9.0248 3.61251L2.62355 10.0125C2.43323 10.2028 2.30938 10.4494 2.27043 10.7156L1.9248 13.0744L4.28418 12.7288C4.55053 12.6896 4.79714 12.5656 4.9873 12.375L11.3873 5.97501M9.0248 3.61251L10.4179 2.21876C10.5108 2.12587 10.621 2.05219 10.7424 2.00192C10.8637 1.95165 10.9938 1.92578 11.1251 1.92578C11.2565 1.92578 11.3865 1.95165 11.5079 2.00192C11.6292 2.05219 11.7394 2.12587 11.8323 2.21876L12.7811 3.16751C12.8739 3.26037 12.9476 3.37062 12.9979 3.49196C13.0482 3.6133 13.074 3.74335 13.074 3.87469C13.074 4.00603 13.0482 4.13609 12.9979 4.25743C12.9476 4.37877 12.8739 4.48902 12.7811 4.58188L11.3873 5.97501M9.0248 3.61251L11.3873 5.97501" stroke="#393939" stroke-linecap="round" stroke-linejoin="round"/>
</svg>
