<svg width="181" height="51" viewBox="0 0 181 51" fill="none" xmlns="http://www.w3.org/2000/svg">
<path d="M44.0599 19.8918C44.0599 25.7901 41.9095 29.4765 38.899 32.3642L45.473 49.383H24.3377L20.3441 37.7709H20.2826V49.4445H0.621844V1.39841H19.4839C37.0558 1.39841 43.9985 7.60385 44.0599 19.8918ZM16.289 17.3114L15.1831 18.8474C18.6238 21.0592 26.4266 22.2266 31.0346 22.2266V20.5062C26.4266 20.5062 19.2996 19.1546 16.289 17.3114ZM44.486 25.4214C44.486 9.01697 54.3164 0.476806 67.6489 0.476806C81.0428 0.476806 90.8732 9.01697 90.8732 25.4214C90.8732 41.8259 81.0428 50.3661 67.6489 50.3661C54.3164 50.3661 44.486 41.8874 44.486 25.4214ZM60.5218 22.9024L59.4159 24.5613C64.0854 26.7731 70.3522 27.3261 76.189 27.3261V25.4829C70.3522 25.4829 64.7612 24.7456 60.5218 22.9024ZM91.366 25.4214C91.366 9.01697 101.196 0.476806 114.529 0.476806C127.923 0.476806 137.753 9.01697 137.753 25.4214C137.753 41.8259 127.923 50.3661 114.529 50.3661C101.196 50.3661 91.366 41.8874 91.366 25.4214ZM107.402 22.9024L106.296 24.5613C110.965 26.7731 117.232 27.3261 123.069 27.3261V25.4829C117.232 25.4829 111.641 24.7456 107.402 22.9024ZM136.554 1.39841H180.546V17.0656H168.995V49.4445H148.105V17.0656H136.554V1.39841Z" fill="#2568E4"/>
</svg>
