<svg width="45" height="40" viewBox="0 0 45 40" fill="none" xmlns="http://www.w3.org/2000/svg">
<path d="M4.5 0C3.30653 0 2.16193 0.484526 1.31802 1.34699C0.474106 2.20945 0 3.3792 0 4.5989L0 35.2582C0 36.4779 0.474106 37.6477 1.31802 38.5102C2.16193 39.3726 3.30653 39.8571 4.5 39.8571H40.5C41.6935 39.8571 42.8381 39.3726 43.682 38.5102C44.5259 37.6477 45 36.4779 45 35.2582V10.7308C45 9.51106 44.5259 8.34132 43.682 7.47885C42.8381 6.61639 41.6935 6.13187 40.5 6.13187H23.121L17.121 0H4.5Z" fill="#DFDFDF"/>
</svg>
