<svg width="17" height="19" viewBox="0 0 17 19" fill="none" xmlns="http://www.w3.org/2000/svg">
<path fill-rule="evenodd" clip-rule="evenodd" d="M13.2462 13.2139C14.6392 11.8127 15.5 9.88188 15.5 7.75C15.5 3.46979 12.0302 0 7.75 0C3.46979 0 0 3.46979 0 7.75C0 12.0302 3.46979 15.5 7.75 15.5C9.35839 15.5 10.8523 15.01 12.0908 14.1712L15.4356 17.9939C15.7083 18.3056 16.1821 18.3372 16.4939 18.0644C16.8056 17.7917 16.8372 17.3178 16.5644 17.0061L13.2462 13.2139ZM7.75 13.9804C4.30903 13.9804 1.51957 11.191 1.51957 7.75C1.51957 4.30903 4.30903 1.51957 7.75 1.51957C11.191 1.51957 13.9804 4.30903 13.9804 7.75C13.9804 11.191 11.191 13.9804 7.75 13.9804Z" fill="#00376E"/>
</svg>
