<svg width="17" height="19" viewBox="0 0 17 19" fill="none" xmlns="http://www.w3.org/2000/svg">
<g id="Frame 116">
<g id="Ellipse 37">
<mask id="path-1-inside-1_1634_1159" fill="white">
<path d="M15.5 8C15.5 12.2802 12.0302 15.75 7.75 15.75C3.46979 15.75 0 12.2802 0 8C0 3.71979 3.46979 0.25 7.75 0.25C12.0302 0.25 15.5 3.71979 15.5 8ZM1.51957 8C1.51957 11.441 4.30903 14.2304 7.75 14.2304C11.191 14.2304 13.9804 11.441 13.9804 8C13.9804 4.55903 11.191 1.76957 7.75 1.76957C4.30903 1.76957 1.51957 4.55903 1.51957 8Z"/>
</mask>
<path d="M15.5 8C15.5 12.2802 12.0302 15.75 7.75 15.75C3.46979 15.75 0 12.2802 0 8C0 3.71979 3.46979 0.25 7.75 0.25C12.0302 0.25 15.5 3.71979 15.5 8ZM1.51957 8C1.51957 11.441 4.30903 14.2304 7.75 14.2304C11.191 14.2304 13.9804 11.441 13.9804 8C13.9804 4.55903 11.191 1.76957 7.75 1.76957C4.30903 1.76957 1.51957 4.55903 1.51957 8Z" fill="#2960C6" stroke="#2960C6" stroke-width="2" mask="url(#path-1-inside-1_1634_1159)"/>
</g>
<path id="Line 25" d="M12.5 13.75L16 17.75" stroke="#2960C6" stroke-width="1.5" stroke-linecap="round"/>
</g>
</svg>
