<svg width="17" height="19" viewBox="0 0 17 19" fill="none" xmlns="http://www.w3.org/2000/svg">
<mask id="path-1-inside-1_1664_1176" fill="white">
<path d="M15.5 7.75C15.5 12.0302 12.0302 15.5 7.75 15.5C3.46979 15.5 0 12.0302 0 7.75C0 3.46979 3.46979 0 7.75 0C12.0302 0 15.5 3.46979 15.5 7.75ZM1.51957 7.75C1.51957 11.191 4.30903 13.9804 7.75 13.9804C11.191 13.9804 13.9804 11.191 13.9804 7.75C13.9804 4.30903 11.191 1.51957 7.75 1.51957C4.30903 1.51957 1.51957 4.30903 1.51957 7.75Z"/>
</mask>
<path d="M15.5 7.75C15.5 12.0302 12.0302 15.5 7.75 15.5C3.46979 15.5 0 12.0302 0 7.75C0 3.46979 3.46979 0 7.75 0C12.0302 0 15.5 3.46979 15.5 7.75ZM1.51957 7.75C1.51957 11.191 4.30903 13.9804 7.75 13.9804C11.191 13.9804 13.9804 11.191 13.9804 7.75C13.9804 4.30903 11.191 1.51957 7.75 1.51957C4.30903 1.51957 1.51957 4.30903 1.51957 7.75Z" fill="#2960C6" stroke="#2960C6" stroke-width="2" mask="url(#path-1-inside-1_1664_1176)"/>
<path d="M12.5 13.5L16 17.5" stroke="#2960C6" stroke-width="1.5" stroke-linecap="round"/>
</svg>
