<svg width="368" height="594" viewBox="0 0 368 594" fill="none" xmlns="http://www.w3.org/2000/svg">
<circle cx="175" cy="529" r="25" fill="#87B0FE" fill-opacity="0.3"/>
<circle cx="175" cy="529" r="17" fill="#6E8ECE" fill-opacity="0.5"/>
<circle cx="175" cy="529" r="8" fill="#689BFF"/>
<path d="M184.497 552.36L176.607 537.312C176.277 536.681 176.184 535.959 176.35 535.304C176.516 534.649 176.927 534.115 177.492 533.819C178.057 533.522 178.73 533.489 179.363 533.725C179.996 533.961 180.537 534.448 180.868 535.078L187.927 548.542M187.512 547.75L185.851 544.582C185.52 543.952 185.428 543.23 185.594 542.575C185.76 541.92 186.17 541.385 186.735 541.089C187.3 540.793 187.973 540.759 188.607 540.995C189.24 541.231 189.781 541.718 190.111 542.348L192.188 546.308M190.942 543.932C190.611 543.302 190.519 542.58 190.685 541.925C190.851 541.27 191.261 540.735 191.826 540.439C192.391 540.143 193.064 540.109 193.698 540.345C194.331 540.581 194.872 541.068 195.202 541.698L196.448 544.074" stroke="white" stroke-width="1.49312" stroke-linecap="round" stroke-linejoin="round"/>
<path d="M196.399 543.981C196.068 543.35 195.976 542.628 196.142 541.973C196.308 541.318 196.718 540.784 197.283 540.488C197.848 540.191 198.521 540.158 199.155 540.394C199.788 540.63 200.329 541.117 200.659 541.747L204.031 548.176C205.352 550.697 205.722 553.585 205.058 556.205C204.395 558.826 202.752 560.963 200.492 562.148L197.652 563.638L197.948 563.483C196.536 564.223 194.942 564.561 193.309 564.465C191.675 564.37 190.052 563.845 188.587 562.938L188.06 562.609C187.219 562.083 183.501 559.501 180.636 555.982C180.097 555.32 179.5 553.499 179.5 553.499C179.498 552.684 179.501 553 179.503 552.36C179.508 550.951 181.372 548.228 182.001 548.001C183.241 550.379 183.001 550 183.001 550L184.497 552.36" stroke="white" stroke-width="1.49312" stroke-linecap="round" stroke-linejoin="round"/>
<path d="M69.6733 580.212V581.215C69.6733 582.294 69.6733 583.437 69.356 584.985L68.1626 584.884C68.2896 584.268 68.3721 583.722 68.4165 583.208L61.6499 583.525L61.4849 582.51L68.4673 582.319C68.48 581.932 68.48 581.57 68.48 581.215V581.189H61.7769V580.212H69.6733ZM70.9175 585.684V586.648H60.5708V585.684H64.6714V584.084H65.8901V585.684H70.9175ZM69.9146 589.924V590.901H61.853V587.524H63.0591V589.924H69.9146ZM81.4927 579.717V588.223H80.3501V579.717H81.4927ZM79.2583 579.933V587.943H78.1157V583.868H76.7065V582.891H78.1157V579.933H79.2583ZM81.8228 589.86V590.838H74.0024V587.283H75.2212V589.86H81.8228ZM76.6304 580.618V581.596H73.4565V583.018H76.186V583.957H73.4565V585.442C74.9546 585.436 75.9512 585.398 77.1128 585.163L77.2271 586.128C75.9194 586.382 74.8403 586.433 73.0376 586.433H72.3013V580.618H76.6304ZM93.439 588.667V589.657H83.0288V588.667H93.439ZM92.4741 581.456V582.434H88.8306C88.8813 584.141 90.5508 585.55 92.8804 585.925L92.3979 586.89C90.5127 586.553 88.9512 585.588 88.2212 584.198C87.4785 585.588 85.917 586.553 84.0444 586.89L83.5747 585.925C85.8789 585.55 87.5483 584.141 87.6118 582.434H83.9683V581.456H87.6245V579.945H88.8179V581.456H92.4741ZM104.662 584.922V585.849H94.2515V584.922H104.662ZM103.379 586.648V589.149H96.7017V590.089H103.735V590.939H95.4956V588.35H102.186V587.512H95.4829V586.648H103.379ZM103.354 579.996V582.459H96.7778V583.322H103.544V584.173H95.5845V581.659H102.148V580.847H95.5591V579.996H103.354ZM118.106 579.704V585.493H116.9V579.704H118.106ZM114.691 580.212C114.678 583.195 112.736 584.96 109.295 585.722L108.851 584.744C111.701 584.147 113.187 582.872 113.371 581.202H109.448V580.212H114.691ZM118.106 586.001V588.857H111.86V590.013H118.487V590.965H110.667V587.956H116.9V586.953H110.628V586.001H118.106ZM129.684 579.704V591.079H128.542V579.704H129.684ZM127.285 579.996V590.521H126.142V585.239H123.92C123.241 586.56 122.162 587.715 120.556 588.654L119.871 587.791C122.283 586.356 123.444 584.446 123.654 582.104H120.404V581.113H124.847C124.841 582.224 124.688 583.284 124.339 584.274H126.142V579.996H127.285ZM143.801 579.704V591.104H142.608V584.896H140.348V583.906H142.608V579.704H143.801ZM140.158 580.72V581.697H136.057V583.906H139.675V584.871H136.057V587.41C137.961 587.404 139.282 587.359 140.792 587.093L140.919 588.07C139.269 588.337 137.834 588.4 135.727 588.413H134.838V580.72H140.158ZM154.973 579.704V591.079H153.767V579.704H154.973ZM149.832 583.36C149.832 585.176 151.038 587.029 152.802 587.778L152.142 588.705C150.834 588.134 149.787 586.953 149.26 585.519C148.746 587.036 147.718 588.299 146.391 588.896L145.718 587.969C147.483 587.182 148.651 585.265 148.651 583.36V582.611H146.061V581.646H148.638V579.933H149.832V581.646H152.383V582.611H149.832V583.36ZM162.413 581.583V582.561H156.763V581.583H158.998V580.034H160.191V581.583H162.413ZM159.594 583.246C161.042 583.246 162.057 584.325 162.07 585.861C162.057 587.41 161.042 588.502 159.594 588.502C158.172 588.502 157.119 587.41 157.131 585.861C157.119 584.325 158.172 583.246 159.594 583.246ZM159.594 584.249C158.769 584.249 158.198 584.922 158.198 585.861C158.198 586.826 158.769 587.474 159.594 587.474C160.407 587.474 161.003 586.826 161.003 585.861C161.003 584.922 160.407 584.249 159.594 584.249ZM166.526 579.704V591.079H165.383V585.43H164.076V590.546H162.933V579.958H164.076V584.439H165.383V579.704H166.526ZM172.125 582.599C172.125 584.681 173.292 586.75 175.032 587.537L174.295 588.502C173 587.854 172.029 586.566 171.528 585.011C171.026 586.648 170.03 588.032 168.722 588.718L167.96 587.74C169.725 586.902 170.906 584.706 170.906 582.599V580.656H172.125V582.599ZM177.507 579.704V591.104H176.314V584.465H173.775V583.487H176.314V579.704H177.507ZM192.196 579.704V591.079H191.041V579.704H192.196ZM189.885 579.945V590.508H188.743V584.719H186.978V583.729H188.743V579.945H189.885ZM185.861 582.878C185.861 584.82 186.648 586.763 188.248 587.689L187.524 588.578C186.438 587.931 185.689 586.782 185.302 585.404C184.89 586.89 184.115 588.153 183.004 588.845L182.268 587.943C183.88 586.966 184.706 584.896 184.706 582.878V581.964H182.611V580.986H187.816V581.964H185.861V582.878ZM202.72 580.174V584.071H199.445V585.392H204.041V586.369H193.668V585.392H198.251V584.071H194.989V580.174H202.72ZM196.169 581.126V583.106H201.527V581.126H196.169ZM202.771 587.448V591.079H201.552V588.4H194.824V587.448H202.771ZM210.083 579.895C212.648 579.895 214.146 580.58 214.146 581.85C214.146 583.119 212.648 583.817 210.083 583.817C207.519 583.817 206.021 583.119 206.021 581.85C206.021 580.58 207.519 579.895 210.083 579.895ZM210.083 580.783C208.268 580.783 207.265 581.177 207.278 581.85C207.265 582.548 208.268 582.916 210.083 582.916C211.899 582.916 212.902 582.548 212.902 581.85C212.902 581.177 211.899 580.783 210.083 580.783ZM215.276 584.516V585.48H204.904V584.516H215.276ZM213.968 586.356V589.022H207.341V590.038H214.286V590.965H206.161V588.146H212.775V587.258H206.148V586.356H213.968ZM225.14 580.707C225.127 582.218 226.981 583.64 229.215 583.932L228.746 584.922C226.886 584.624 225.248 583.659 224.518 582.319C223.769 583.665 222.138 584.624 220.291 584.922L219.808 583.932C222.042 583.64 223.871 582.23 223.883 580.707V580.085H225.14V580.707ZM229.685 586.039V587.029H225.064V591.079H223.883V587.029H219.313V586.039H229.685ZM240.032 579.704V586.471H238.826V583.589H236.706V582.599H238.826V579.704H240.032ZM236.223 586.788C238.61 586.788 240.07 587.575 240.07 588.934C240.07 590.292 238.61 591.066 236.223 591.079C233.836 591.066 232.364 590.292 232.376 588.934C232.364 587.575 233.836 586.788 236.223 586.788ZM236.223 587.728C234.56 587.728 233.57 588.159 233.57 588.934C233.57 589.695 234.56 590.14 236.223 590.127C237.886 590.14 238.876 589.695 238.876 588.934C238.876 588.159 237.886 587.728 236.223 587.728ZM234.624 581.71C234.624 583.157 235.652 584.554 237.366 585.138L236.744 586.09C235.468 585.646 234.528 584.738 234.04 583.614C233.538 584.89 232.542 585.912 231.183 586.407L230.548 585.442C232.313 584.833 233.392 583.297 233.392 581.723V581.469H230.929V580.491H237.061V581.469H234.624V581.71ZM247.408 581.583V582.561H241.758V581.583H243.993V580.034H245.186V581.583H247.408ZM244.589 583.246C246.037 583.246 247.052 584.325 247.065 585.861C247.052 587.41 246.037 588.502 244.589 588.502C243.167 588.502 242.114 587.41 242.126 585.861C242.114 584.325 243.167 583.246 244.589 583.246ZM244.589 584.249C243.764 584.249 243.193 584.922 243.193 585.861C243.193 586.826 243.764 587.474 244.589 587.474C245.402 587.474 245.999 586.826 245.999 585.861C245.999 584.922 245.402 584.249 244.589 584.249ZM251.521 579.704V591.079H250.378V585.43H249.071V590.546H247.928V579.958H249.071V584.439H250.378V579.704H251.521ZM263.429 588.667V589.67H253.019V588.667H257.602V586.331H254.212V580.479H255.418V582.434H261.004V580.479H262.198V586.331H258.795V588.667H263.429ZM255.418 585.354H261.004V583.411H255.418V585.354ZM267.72 582.814C267.72 584.63 268.482 586.572 270.005 587.499L269.333 588.426C268.266 587.785 267.542 586.648 267.162 585.328C266.736 586.775 265.956 588.007 264.851 588.68L264.102 587.778C265.714 586.813 266.552 584.808 266.552 582.865V580.745H267.72V582.814ZM274.042 579.704V591.079H272.887V579.704H274.042ZM271.681 579.92V590.521H270.539V584.706H268.774V583.703H270.539V579.92H271.681ZM285.9 588.654V589.657H275.49V588.654H277.978V585.684C277.045 585.169 276.48 584.351 276.48 583.335C276.48 581.545 278.232 580.364 280.669 580.364C283.12 580.364 284.872 581.545 284.872 583.335C284.872 584.338 284.326 585.144 283.412 585.658V588.654H285.9ZM280.669 581.329C278.879 581.329 277.648 582.104 277.648 583.335C277.648 584.554 278.879 585.354 280.669 585.354C282.447 585.354 283.704 584.554 283.704 583.335C283.704 582.104 282.447 581.329 280.669 581.329ZM279.171 588.654H282.193V586.115C281.729 586.236 281.215 586.293 280.669 586.293C280.136 586.293 279.628 586.236 279.171 586.128V588.654ZM288.82 580.809L288.706 587.347H287.449L287.334 580.809H288.82ZM288.083 590.089C287.588 590.089 287.169 589.683 287.182 589.188C287.169 588.692 287.588 588.286 288.083 588.286C288.566 588.286 288.985 588.692 288.985 589.188C288.985 589.683 288.566 590.089 288.083 590.089Z" fill="white"/>
<path d="M76.2515 100.717V109.337H75.0454V108.245H72.7603V107.395H75.0454V100.717H76.2515ZM76.5308 110.86V111.838H68.3169V108.499H69.5103V110.86H76.5308ZM66.7427 105.909C68.8501 105.896 71.6812 105.871 74.106 105.566L74.1821 106.43C73.2109 106.588 72.189 106.696 71.186 106.76V108.981H69.98V106.823C68.8755 106.874 67.8154 106.88 66.895 106.874L66.7427 105.909ZM70.4624 101.148C72.1255 101.148 73.2808 101.948 73.2808 103.154C73.2808 104.36 72.1255 105.135 70.4624 105.135C68.7739 105.135 67.6313 104.36 67.6313 103.154C67.6313 101.948 68.7739 101.148 70.4624 101.148ZM70.4624 102.05C69.4468 102.037 68.7612 102.469 68.7739 103.154C68.7612 103.827 69.4468 104.246 70.4624 104.246C71.4399 104.246 72.1255 103.827 72.1382 103.154C72.1255 102.469 71.4399 102.037 70.4624 102.05ZM86.8901 100.704V105.312H88.7183V106.315H86.8901V112.079H85.6968V100.704H86.8901ZM84.7065 102.481V103.472H77.9653V102.481H80.771V100.856H81.9771V102.481H84.7065ZM81.3804 104.31C83.0054 104.31 84.1987 105.401 84.2114 106.95C84.1987 108.512 83.0054 109.591 81.3804 109.604C79.7427 109.591 78.5493 108.512 78.5493 106.95C78.5493 105.401 79.7427 104.31 81.3804 104.31ZM81.3804 105.3C80.4155 105.3 79.6919 105.973 79.7046 106.95C79.6919 107.94 80.4155 108.601 81.3804 108.588C82.3452 108.601 83.0562 107.94 83.0562 106.95C83.0562 105.973 82.3452 105.3 81.3804 105.3ZM98.4683 104.03V104.995H90.6353V101.11H91.8286V104.03H98.4683ZM99.6616 106.43V107.395H89.2515V106.43H99.6616ZM98.5444 110.822V111.812H90.5464V108.474H91.7524V110.822H98.5444ZM112.789 101.212V102.215C112.789 103.294 112.789 104.437 112.471 105.985L111.278 105.884C111.405 105.268 111.487 104.722 111.532 104.208L104.765 104.525L104.6 103.51L111.583 103.319C111.595 102.932 111.595 102.57 111.595 102.215V102.189H104.892V101.212H112.789ZM114.033 106.684V107.648H103.686V106.684H107.787V105.084H109.005V106.684H114.033ZM113.03 110.924V111.901H104.968V108.524H106.174V110.924H113.03ZM124.608 100.717V109.223H123.465V100.717H124.608ZM122.374 100.933V108.943H121.231V104.868H119.822V103.891H121.231V100.933H122.374ZM124.938 110.86V111.838H117.118V108.283H118.336V110.86H124.938ZM119.746 101.618V102.596H116.572V104.018H119.301V104.957H116.572V106.442C118.07 106.436 119.066 106.398 120.228 106.163L120.342 107.128C119.035 107.382 117.956 107.433 116.153 107.433H115.417V101.618H119.746ZM136.554 109.667V110.657H126.144V109.667H136.554ZM135.589 102.456V103.434H131.946C131.997 105.141 133.666 106.55 135.996 106.925L135.513 107.89C133.628 107.553 132.066 106.588 131.336 105.198C130.594 106.588 129.032 107.553 127.16 107.89L126.69 106.925C128.994 106.55 130.664 105.141 130.727 103.434H127.083V102.456H130.74V100.945H131.933V102.456H135.589ZM147.777 105.922V106.849H137.367V105.922H147.777ZM146.495 107.648V110.149H139.817V111.089H146.85V111.939H138.611V109.35H145.301V108.512H138.598V107.648H146.495ZM146.469 100.996V103.459H139.893V104.322H146.66V105.173H138.7V102.659H145.263V101.847H138.674V100.996H146.469ZM160.866 101.161V101.872C160.853 102.583 160.853 103.472 160.65 104.576L159.457 104.475C159.634 103.497 159.66 102.773 159.66 102.126H153.007V101.161H160.866ZM162.148 105.16V106.112H151.801V105.16H155.953V103.281H157.133V105.16H162.148ZM160.891 107.052V109.87H154.226V111H161.183V111.965H153.02V109.032H159.698V108.029H153.007V107.052H160.891ZM171.885 100.704V105.147H173.713V106.163H171.885V112.104H170.692V100.704H171.885ZM168.673 101.732V105.909H164.687V108.372C166.642 108.366 168.089 108.296 169.752 107.991L169.867 108.969C168.089 109.299 166.553 109.375 164.42 109.388H163.494V104.932H167.48V102.71H163.468V101.732H168.673ZM186.828 100.996V101.91H185.177V103.891H186.777V104.792H183.209V105.77H187.805V106.722H177.433V105.77H182.003V104.792H178.436V103.891H180.048V101.91H178.385V100.996H186.828ZM186.498 107.534V110.099H179.871V111.051H186.815V111.965H178.69V109.248H185.304V108.41H178.677V107.534H186.498ZM181.242 103.891H183.971V101.91H181.242V103.891ZM194.445 101.758V102.761H190.446V108.309C192.35 108.302 193.664 108.232 195.156 107.94L195.295 108.931C193.658 109.235 192.274 109.312 190.128 109.312H189.227V101.758H194.445ZM198.165 100.704V112.104H196.958V105.77H193.797V104.767H196.958V100.704H198.165ZM209.692 100.704V112.079H208.537V100.704H209.692ZM207.381 100.92V111.521H206.226V106.036H204.944C204.842 108.258 203.89 109.642 202.481 109.629C200.996 109.642 200.031 108.08 200.031 105.617C200.031 103.154 200.996 101.605 202.481 101.618C203.865 101.605 204.804 102.919 204.944 105.059H206.226V100.92H207.381ZM202.481 102.748C201.656 102.748 201.148 103.802 201.148 105.617C201.148 107.433 201.656 108.486 202.481 108.486C203.319 108.486 203.839 107.433 203.839 105.617C203.839 103.802 203.319 102.748 202.481 102.748ZM224.723 109.654V110.657H214.313V109.654H218.896V107.026H215.506V101.618H223.479V107.026H220.089V109.654H224.723ZM216.674 102.583V106.074H222.298V102.583H216.674ZM228.595 101.555C230.296 101.555 231.502 103.104 231.515 105.541C231.502 107.991 230.296 109.54 228.595 109.54C226.894 109.54 225.675 107.991 225.688 105.541C225.675 103.104 226.894 101.555 228.595 101.555ZM228.595 102.634C227.554 102.634 226.843 103.751 226.843 105.541C226.843 107.344 227.554 108.461 228.595 108.461C229.649 108.461 230.36 107.344 230.36 105.541C230.36 103.751 229.649 102.634 228.595 102.634ZM234.41 100.704V105.16H236.238V106.176H234.41V112.079H233.204V100.704H234.41ZM247.194 109.667V110.67H236.784V109.667H241.367V107.331H237.977V101.479H239.183V103.434H244.769V101.479H245.962V107.331H242.56V109.667H247.194ZM239.183 106.354H244.769V104.411H239.183V106.354ZM251.485 103.814C251.485 105.63 252.247 107.572 253.77 108.499L253.097 109.426C252.031 108.785 251.307 107.648 250.926 106.328C250.501 107.775 249.72 109.007 248.616 109.68L247.867 108.778C249.479 107.813 250.317 105.808 250.317 103.865V101.745H251.485V103.814ZM257.807 100.704V112.079H256.652V100.704H257.807ZM255.446 100.92V111.521H254.303V105.706H252.539V104.703H254.303V100.92H255.446ZM269.665 109.654V110.657H259.254V109.654H261.743V106.684C260.81 106.169 260.245 105.351 260.245 104.335C260.245 102.545 261.997 101.364 264.434 101.364C266.884 101.364 268.636 102.545 268.636 104.335C268.636 105.338 268.09 106.144 267.176 106.658V109.654H269.665ZM264.434 102.329C262.644 102.329 261.413 103.104 261.413 104.335C261.413 105.554 262.644 106.354 264.434 106.354C266.211 106.354 267.468 105.554 267.468 104.335C267.468 103.104 266.211 102.329 264.434 102.329ZM262.936 109.654H265.958V107.115C265.494 107.236 264.98 107.293 264.434 107.293C263.901 107.293 263.393 107.236 262.936 107.128V109.654ZM272.584 101.809L272.47 108.347H271.213L271.099 101.809H272.584ZM271.848 111.089C271.353 111.089 270.934 110.683 270.947 110.188C270.934 109.692 271.353 109.286 271.848 109.286C272.331 109.286 272.75 109.692 272.75 110.188C272.75 110.683 272.331 111.089 271.848 111.089Z" fill="white"/>
<path d="M166.928 248.212V249.215C166.928 250.294 166.928 251.437 166.61 252.985L165.417 252.884C165.544 252.268 165.626 251.722 165.671 251.208L158.904 251.525L158.739 250.51L165.722 250.319C165.734 249.932 165.734 249.57 165.734 249.215V249.189H159.031V248.212H166.928ZM168.172 253.684V254.648H157.825V253.684H161.926V252.084H163.145V253.684H168.172ZM167.169 257.924V258.901H159.107V255.524H160.313V257.924H167.169ZM178.747 247.717V256.223H177.604V247.717H178.747ZM176.513 247.933V255.943H175.37V251.868H173.961V250.891H175.37V247.933H176.513ZM179.077 257.86V258.838H171.257V255.283H172.476V257.86H179.077ZM173.885 248.618V249.596H170.711V251.018H173.44V251.957H170.711V253.442C172.209 253.436 173.206 253.398 174.367 253.163L174.481 254.128C173.174 254.382 172.095 254.433 170.292 254.433H169.556V248.618H173.885ZM190.693 256.667V257.657H180.283V256.667H190.693ZM189.729 249.456V250.434H186.085C186.136 252.141 187.805 253.55 190.135 253.925L189.652 254.89C187.767 254.553 186.206 253.588 185.476 252.198C184.733 253.588 183.171 254.553 181.299 254.89L180.829 253.925C183.133 253.55 184.803 252.141 184.866 250.434H181.223V249.456H184.879V247.945H186.072V249.456H189.729ZM201.916 252.922V253.849H191.506V252.922H201.916ZM200.634 254.648V257.149H193.956V258.089H200.989V258.939H192.75V256.35H199.44V255.512H192.737V254.648H200.634ZM200.608 247.996V250.459H194.032V251.322H200.799V252.173H192.839V249.659H199.402V248.847H192.813V247.996H200.608ZM215.424 247.704V259.104H214.218V252.782H211.869V251.792H214.218V247.704H215.424ZM209.99 250.903C209.99 252.833 211.196 254.902 212.948 255.677L212.225 256.642C210.911 256.007 209.895 254.68 209.394 253.125C208.886 254.782 207.851 256.197 206.537 256.87L205.801 255.931C207.54 255.105 208.759 252.947 208.771 250.903V249.837H206.258V248.847H212.517V249.837H209.99V250.903ZM221.137 249.799C221.137 251.246 222.14 252.566 223.866 253.112L223.295 254.052C222 253.639 221.054 252.782 220.553 251.703C220.058 252.947 219.061 253.931 217.696 254.407L217.074 253.442C218.852 252.858 219.918 251.386 219.931 249.812V249.494H217.43V248.517H223.587V249.494H221.137V249.799ZM226.101 247.704V250.522H227.751V251.513H226.101V254.534H224.895V247.704H226.101ZM222.432 254.813C224.78 254.813 226.202 255.588 226.202 256.921C226.202 258.267 224.78 259.066 222.432 259.054C220.058 259.066 218.61 258.267 218.61 256.921C218.61 255.588 220.058 254.813 222.432 254.813ZM222.432 255.766C220.781 255.766 219.804 256.185 219.816 256.921C219.804 257.683 220.781 258.102 222.432 258.102C224.069 258.102 225.021 257.683 225.021 256.921C225.021 256.185 224.069 255.766 222.432 255.766ZM237.336 247.717V251.373H238.986V252.376H237.336V256.223H236.13V247.717H237.336ZM235.19 249.037V250.015H228.411V249.037H231.204V247.704H232.41V249.037H235.19ZM231.801 250.561C233.438 250.561 234.556 251.411 234.556 252.706C234.556 254.001 233.438 254.839 231.801 254.839C230.15 254.839 229.033 254.001 229.033 252.706C229.033 251.411 230.15 250.561 231.801 250.561ZM231.801 251.487C230.836 251.487 230.188 251.957 230.201 252.706C230.188 253.442 230.836 253.899 231.801 253.899C232.766 253.899 233.413 253.442 233.426 252.706C233.413 251.957 232.766 251.487 231.801 251.487ZM237.818 257.86V258.838H230.125V255.55H231.331V257.86H237.818ZM251.745 247.704V249.989H253.396V251.005H251.745V253.404H250.539V247.704H251.745ZM244.534 248.212V251.919C246.064 251.906 247.676 251.786 249.422 251.437L249.574 252.439C247.657 252.82 245.931 252.935 244.255 252.935H243.328V248.212H244.534ZM251.745 253.925V256.819H245.613V257.962H252.139V258.939H244.42V255.893H250.539V254.877H244.395V253.925H251.745ZM263.209 247.704V252.147H264.707V253.163H263.209V259.079H262.003V247.704H263.209ZM256.734 250.929C256.734 252.205 256.887 253.95 257.775 255.182C258.62 253.976 258.791 252.249 258.804 250.929V249.786H257.991V248.809H261.165V249.786H259.946V250.929C259.946 252.681 260.276 254.763 261.698 255.804L260.924 256.68C260.111 256.051 259.635 255.055 259.362 253.925C259.102 255.08 258.62 256.134 257.763 256.781C256.918 256.14 256.436 255.08 256.176 253.938C255.89 255.055 255.414 256.058 254.614 256.68L253.84 255.804C255.249 254.75 255.592 252.63 255.592 250.929V249.786H254.233V248.809H257.534V249.786H256.734V250.929ZM275.688 256.705V257.721H265.278V256.705H269.861V254.712H266.548V251.094H273.226V249.494H266.522V248.504H274.419V252.059H267.741V253.722H274.686V254.712H271.055V256.705H275.688ZM283.674 250.053C283.674 251.348 284.702 252.566 286.441 253.049L285.896 253.976C284.569 253.607 283.598 252.808 283.09 251.779C282.588 252.903 281.592 253.779 280.246 254.191L279.662 253.239C281.401 252.744 282.48 251.475 282.48 250.053V249.926H280.005V248.961H282.48V247.653H283.687V248.961H286.149V249.926H283.674V250.053ZM288.625 247.704V250.434H290.275V251.437H288.625V254.268H287.419V247.704H288.625ZM288.803 254.839V255.804H285.692C285.908 256.864 287.368 257.835 289.272 258.114L288.828 259.041C287.102 258.774 285.68 257.981 285.02 256.896C284.366 257.975 282.957 258.755 281.236 259.028L280.792 258.102C282.703 257.835 284.144 256.896 284.372 255.804H281.249V254.839H288.803ZM293.97 248.555C295.671 248.555 296.877 250.104 296.89 252.541C296.877 254.991 295.671 256.54 293.97 256.54C292.269 256.54 291.05 254.991 291.062 252.541C291.05 250.104 292.269 248.555 293.97 248.555ZM293.97 249.634C292.929 249.634 292.218 250.751 292.218 252.541C292.218 254.344 292.929 255.461 293.97 255.461C295.023 255.461 295.734 254.344 295.734 252.541C295.734 250.751 295.023 249.634 293.97 249.634ZM299.784 247.704V252.16H301.612V253.176H299.784V259.079H298.578V247.704H299.784ZM312.568 256.667V257.67H302.158V256.667H306.741V254.331H303.352V248.479H304.558V250.434H310.144V248.479H311.337V254.331H307.935V256.667H312.568ZM304.558 253.354H310.144V251.411H304.558V253.354ZM316.859 250.814C316.859 252.63 317.621 254.572 319.145 255.499L318.472 256.426C317.405 255.785 316.682 254.648 316.301 253.328C315.875 254.775 315.095 256.007 313.99 256.68L313.241 255.778C314.854 254.813 315.691 252.808 315.691 250.865V248.745H316.859V250.814ZM323.182 247.704V259.079H322.026V247.704H323.182ZM320.82 247.92V258.521H319.678V252.706H317.913V251.703H319.678V247.92H320.82ZM335.039 256.654V257.657H324.629V256.654H327.117V253.684C326.184 253.169 325.619 252.351 325.619 251.335C325.619 249.545 327.371 248.364 329.809 248.364C332.259 248.364 334.011 249.545 334.011 251.335C334.011 252.338 333.465 253.144 332.551 253.658V256.654H335.039ZM329.809 249.329C328.019 249.329 326.787 250.104 326.787 251.335C326.787 252.554 328.019 253.354 329.809 253.354C331.586 253.354 332.843 252.554 332.843 251.335C332.843 250.104 331.586 249.329 329.809 249.329ZM328.311 256.654H331.332V254.115C330.869 254.236 330.354 254.293 329.809 254.293C329.275 254.293 328.768 254.236 328.311 254.128V256.654ZM337.959 248.809L337.845 255.347H336.588L336.474 248.809H337.959ZM337.223 258.089C336.728 258.089 336.309 257.683 336.321 257.188C336.309 256.692 336.728 256.286 337.223 256.286C337.705 256.286 338.124 256.692 338.124 257.188C338.124 257.683 337.705 258.089 337.223 258.089Z" fill="white"/>
<rect x="242" y="8" width="74" height="48" rx="24" fill="#6E8ECE" fill-opacity="0.5"/>
<rect x="250" y="16" width="57" height="32" rx="16" fill="white"/>
<rect x="250" y="16" width="57" height="32" rx="16" stroke="#689BFF" stroke-width="2"/>
<path d="M271.645 28.7861C271.645 30.3223 272.674 31.8203 274.387 32.417L273.727 33.3564C272.483 32.8804 271.556 31.9409 271.074 30.7539C270.579 32.0742 269.608 33.1152 268.268 33.623L267.621 32.6709C269.386 32.0361 270.439 30.4619 270.452 28.748V27.4023H271.645V28.7861ZM277.117 26.7168V35.1973H275.911V30.2969H273.512V29.3066H275.911V26.7168H277.117ZM277.371 36.8604V37.8379H269.69V34.2451H270.909V36.8604H277.371ZM283.882 27.5166V28.4941H280.594V29.7637H283.755V30.6904H280.594V32.0742C282.117 32.0615 283.12 32.0044 284.288 31.7822L284.403 32.7725C283.07 33.0264 281.99 33.0771 280.175 33.0645H279.439V27.5166H283.882ZM288.668 26.7168V33.623H287.526V30.5889H286.129V33.5342H284.999V26.9199H286.129V29.6113H287.526V26.7168H288.668ZM288.668 34.1689V38.0791H287.475V35.1465H280.937V34.1689H288.668Z" fill="#2960C6"/>
<path d="M255.151 73.6741V56.6828C255.151 55.9713 255.405 55.2889 255.856 54.7858C256.307 54.2827 256.919 54 257.557 54C258.195 54 258.806 54.2827 259.258 54.7858C259.709 55.2889 259.962 55.9713 259.962 56.6828V71.8855M259.962 70.9912V67.4141C259.962 66.7026 260.215 66.0202 260.667 65.5171C261.118 65.014 261.729 64.7313 262.367 64.7313C263.005 64.7313 263.617 65.014 264.068 65.5171C264.519 66.0202 264.773 66.7026 264.773 67.4141V71.8855M264.773 69.2027C264.773 68.4912 265.026 67.8088 265.477 67.3056C265.928 66.8025 266.54 66.5199 267.178 66.5199C267.816 66.5199 268.428 66.8025 268.879 67.3056C269.33 67.8088 269.583 68.4912 269.583 69.2027V71.8855" stroke="white" stroke-width="1.49312" stroke-linecap="round" stroke-linejoin="round"/>
<path d="M269.584 71.7797C269.584 71.0681 269.837 70.3857 270.288 69.8826C270.739 69.3795 271.351 69.0968 271.989 69.0968C272.627 69.0968 273.239 69.3795 273.69 69.8826C274.141 70.3857 274.394 71.0681 274.394 71.7797V79.0396C274.394 81.8857 273.381 84.6153 271.576 86.6278C269.772 88.6403 267.325 89.7709 264.773 89.7709H261.566H261.899C260.306 89.7712 258.737 89.3301 257.335 88.4872C255.932 87.6443 254.739 86.4261 253.862 84.9418L253.548 84.4052C253.048 83.5491 250.954 79.5357 250.05 75.0891C249.88 74.2524 250.198 72.3628 250.198 72.3628C250.574 71.6404 250.43 71.9211 250.729 71.3551C251.387 70.1099 254.303 68.5635 254.965 68.6542C254.959 71.3371 254.922 70.8897 254.922 70.8897L255.152 73.6739" stroke="white" stroke-width="1.49312" stroke-linecap="round" stroke-linejoin="round"/>
<rect x="350.5" y="201.5" width="17" height="35" rx="8.5" fill="#2960C6" stroke="#689BFF"/>
<path d="M355.197 212.831C355.135 212.778 355.085 212.715 355.051 212.646C355.017 212.576 355 212.502 355 212.426C355 212.351 355.017 212.276 355.051 212.207C355.085 212.137 355.135 212.074 355.197 212.021L358.527 209.169C358.589 209.115 358.663 209.073 358.744 209.044C358.825 209.015 358.912 209 359 209C359.088 209 359.175 209.015 359.256 209.044C359.337 209.073 359.411 209.115 359.473 209.169L362.803 212.021C362.865 212.074 362.915 212.137 362.949 212.207C362.983 212.276 363 212.351 363 212.426C363 212.502 362.983 212.576 362.949 212.646C362.915 212.715 362.865 212.778 362.803 212.831C362.741 212.885 362.667 212.927 362.586 212.956C362.505 212.985 362.418 213 362.33 213C362.242 213 362.155 212.985 362.074 212.956C361.993 212.927 361.919 212.885 361.857 212.831L359 210.378L356.143 212.831C356.081 212.885 356.007 212.927 355.926 212.956C355.845 212.985 355.758 213 355.67 213C355.582 213 355.495 212.985 355.414 212.956C355.333 212.927 355.259 212.885 355.197 212.831Z" fill="#FCFCFC"/>
<path d="M355.197 225.169C355.135 225.222 355.085 225.285 355.051 225.354C355.017 225.424 355 225.498 355 225.574C355 225.649 355.017 225.724 355.051 225.793C355.085 225.863 355.135 225.926 355.197 225.979L358.527 228.831C358.589 228.885 358.663 228.927 358.744 228.956C358.825 228.985 358.912 229 359 229C359.088 229 359.175 228.985 359.256 228.956C359.337 228.927 359.411 228.885 359.473 228.831L362.803 225.979C362.865 225.926 362.915 225.863 362.949 225.793C362.983 225.724 363 225.649 363 225.574C363 225.498 362.983 225.424 362.949 225.354C362.915 225.285 362.865 225.222 362.803 225.169C362.741 225.115 362.667 225.073 362.586 225.044C362.505 225.015 362.418 225 362.33 225C362.242 225 362.155 225.015 362.074 225.044C361.993 225.073 361.919 225.115 361.857 225.169L359 227.622L356.143 225.169C356.081 225.115 356.007 225.073 355.926 225.044C355.845 225.015 355.758 225 355.67 225C355.582 225 355.495 225.015 355.414 225.044C355.333 225.073 355.259 225.115 355.197 225.169Z" fill="#FCFCFC"/>
<rect x="361.408" y="245" width="8.8889" height="5.3336" transform="rotate(90 361.408 245)" fill="url(#paint0_linear_1634_1398)"/>
<path d="M358.704 261L352.032 253.444H365.376L358.704 261Z" fill="#689BFF"/>
<rect x="356" y="193" width="8.8889" height="5.3336" transform="rotate(-90 356 193)" fill="url(#paint1_linear_1634_1398)"/>
<path d="M358.704 177L365.376 184.556H352.032L358.704 177Z" fill="#689BFF"/>
<rect x="227" y="204" width="112" height="31" rx="15.5" fill="#FCFCFC"/>
<path d="M244.429 223.5V222.641L247.125 219.923C247.974 219.031 248.404 218.537 248.404 217.86C248.404 217.098 247.781 216.604 246.964 216.604C246.105 216.604 245.546 217.151 245.546 217.979H244.429C244.418 216.561 245.503 215.615 246.986 215.615C248.49 215.615 249.521 216.561 249.532 217.828C249.521 218.698 249.113 219.386 247.652 220.825L246.073 222.426V222.49H249.661V223.5H244.429ZM253.478 223.607C251.673 223.607 250.621 222.157 250.621 219.611C250.621 217.087 251.695 215.615 253.478 215.615C255.261 215.615 256.336 217.087 256.336 219.611C256.336 222.157 255.272 223.607 253.478 223.607ZM253.478 222.587C254.531 222.587 255.154 221.556 255.154 219.611C255.154 217.678 254.52 216.614 253.478 216.614C252.436 216.614 251.802 217.678 251.802 219.611C251.802 221.556 252.425 222.587 253.478 222.587ZM257.36 223.5V222.641L260.056 219.923C260.905 219.031 261.335 218.537 261.335 217.86C261.335 217.098 260.712 216.604 259.895 216.604C259.036 216.604 258.477 217.151 258.477 217.979H257.36C257.349 216.561 258.434 215.615 259.917 215.615C261.421 215.615 262.452 216.561 262.463 217.828C262.452 218.698 262.044 219.386 260.583 220.825L259.004 222.426V222.49H262.592V223.5H257.36ZM263.358 221.985V221.029L266.796 215.723H268.257V220.986H269.32V221.985H268.257V223.5H267.14V221.985H263.358ZM264.604 220.986H267.14V217.13H267.054L264.604 220.922V220.986ZM278.004 214.799V221.91H276.984V218.634H274.341V217.817H276.984V216.808H274.341V215.991H276.984V214.799H278.004ZM278.251 223.382V224.209H271.731V221.287H272.762V223.382H278.251ZM271.559 215.465V219.676C272.837 219.676 274.051 219.595 275.426 219.343L275.533 220.181C274.008 220.471 272.708 220.524 271.29 220.535H270.549V215.465H271.559ZM284.823 223.607C283.136 223.607 281.955 222.694 281.965 221.427C281.955 220.428 282.674 219.611 283.587 219.472V219.429C282.793 219.246 282.255 218.537 282.255 217.688C282.255 216.496 283.34 215.615 284.823 215.615C286.295 215.615 287.369 216.496 287.379 217.688C287.369 218.537 286.832 219.246 286.047 219.429V219.472C286.95 219.611 287.67 220.428 287.68 221.427C287.67 222.694 286.488 223.607 284.823 223.607ZM284.823 222.63C285.833 222.63 286.477 222.104 286.477 221.341C286.477 220.535 285.779 219.955 284.823 219.955C283.856 219.955 283.147 220.535 283.169 221.341C283.147 222.104 283.792 222.63 284.823 222.63ZM284.823 219.021C285.639 219.021 286.219 218.526 286.219 217.796C286.219 217.076 285.65 216.582 284.823 216.582C283.963 216.582 283.405 217.065 283.405 217.796C283.405 218.526 283.996 219.021 284.823 219.021ZM296.375 214.799V220.438H295.354V219.977H293.474V219.332H295.354V214.799H296.375ZM288.35 218.344C290.209 218.354 292.572 218.333 294.645 218.107L294.699 218.763C293.791 218.886 292.851 218.961 291.928 219.01V220.46H290.918V219.053C290.048 219.074 289.221 219.08 288.469 219.074L288.35 218.344ZM296.375 220.761V222.834H290.832V223.575H296.665V224.316H289.833V222.157H295.365V221.47H289.79V220.761H296.375ZM291.476 214.96C292.905 214.96 293.872 215.529 293.883 216.41C293.872 217.312 292.905 217.85 291.476 217.85C290.015 217.85 289.059 217.312 289.07 216.41C289.059 215.529 290.015 214.96 291.476 214.96ZM291.476 215.647C290.585 215.647 290.026 215.948 290.026 216.41C290.026 216.872 290.585 217.162 291.476 217.162C292.346 217.162 292.916 216.872 292.916 216.41C292.916 215.948 292.346 215.647 291.476 215.647ZM300.497 223.5V222.641L303.194 219.923C304.042 219.031 304.472 218.537 304.472 217.86C304.472 217.098 303.849 216.604 303.032 216.604C302.173 216.604 301.614 217.151 301.614 217.979H300.497C300.487 216.561 301.571 215.615 303.054 215.615C304.558 215.615 305.589 216.561 305.6 217.828C305.589 218.698 305.181 219.386 303.72 220.825L302.141 222.426V222.49H305.729V223.5H300.497ZM309.557 223.607C307.871 223.607 306.689 222.694 306.7 221.427C306.689 220.428 307.409 219.611 308.322 219.472V219.429C307.527 219.246 306.99 218.537 306.99 217.688C306.99 216.496 308.075 215.615 309.557 215.615C311.029 215.615 312.103 216.496 312.114 217.688C312.103 218.537 311.566 219.246 310.782 219.429V219.472C311.684 219.611 312.404 220.428 312.414 221.427C312.404 222.694 311.222 223.607 309.557 223.607ZM309.557 222.63C310.567 222.63 311.211 222.104 311.211 221.341C311.211 220.535 310.513 219.955 309.557 219.955C308.59 219.955 307.881 220.535 307.903 221.341C307.881 222.104 308.526 222.63 309.557 222.63ZM309.557 219.021C310.373 219.021 310.954 218.526 310.954 217.796C310.954 217.076 310.384 216.582 309.557 216.582C308.698 216.582 308.139 217.065 308.139 217.796C308.139 218.526 308.73 219.021 309.557 219.021ZM315.835 215.11C317.285 215.121 318.348 216.013 318.359 217.27C318.348 218.537 317.285 219.418 315.835 219.418C314.374 219.418 313.299 218.537 313.299 217.27C313.299 216.013 314.374 215.121 315.835 215.11ZM315.835 215.97C314.943 215.959 314.288 216.485 314.298 217.27C314.288 218.064 314.943 218.591 315.835 218.591C316.715 218.591 317.371 218.064 317.371 217.27C317.371 216.485 316.715 215.959 315.835 215.97ZM321.088 214.788V219.687H320.067V214.788H321.088ZM321.088 220.127V222.555H315.781V223.479H321.41V224.295H314.793V221.792H320.078V220.943H314.76V220.127H321.088Z" fill="#2960C6"/>
<defs>
<linearGradient id="paint0_linear_1634_1398" x1="369.112" y1="247.667" x2="362.001" y2="247.667" gradientUnits="userSpaceOnUse">
<stop stop-color="#689BFF"/>
<stop offset="1" stop-color="#689BFF" stop-opacity="0.02"/>
</linearGradient>
<linearGradient id="paint1_linear_1634_1398" x1="363.704" y1="195.667" x2="356.593" y2="195.667" gradientUnits="userSpaceOnUse">
<stop stop-color="#689BFF"/>
<stop offset="1" stop-color="#689BFF" stop-opacity="0.02"/>
</linearGradient>
</defs>
</svg>
