<svg width="17" height="17" viewBox="0 0 17 17" fill="none" xmlns="http://www.w3.org/2000/svg">
<path d="M9.96065 16.0715C10.1846 16.2959 10.4362 16.4 10.7483 16.4L15.2832 16.4L15.2841 16.4M9.96065 16.0715L17 15.2841C17 15.7558 16.8318 16.1596 16.4953 16.4953C16.1589 16.8311 15.7551 16.9993 15.2841 17V16.4M9.96065 16.0715C9.73592 15.8463 9.63184 15.5943 9.63125 15.2837C9.63125 15.2835 9.63125 15.2833 9.63125 15.2832L9.63125 10.7472C9.63125 10.4361 9.73513 10.1848 9.95975 9.96065C10.185 9.73592 10.437 9.63184 10.7475 9.63125L9.96065 16.0715ZM15.2841 16.4C15.5945 16.3993 15.8464 16.2953 16.0715 16.0706C16.2961 15.8464 16.4 15.5951 16.4 15.2841L16.4 10.7481M15.2841 16.4L16.4 10.7481M16.4 10.7481L16.4 10.7472L16.4 10.7481ZM9.96065 7.04025C10.1846 7.26468 10.4362 7.36875 10.7483 7.36875L15.2832 7.36875C15.2833 7.36875 15.2834 7.36875 15.2835 7.36875C15.5942 7.36822 15.8462 7.26415 16.0715 7.03935C16.2961 6.8152 16.4 6.56386 16.4 6.25281L16.4 1.71684L16.4 1.71594M9.96065 7.04025L15.2841 0C15.7558 0 16.1596 0.168229 16.4953 0.504687C16.8311 0.841146 16.9993 1.2449 17 1.71594H16.4M9.96065 7.04025C9.73592 6.81504 9.63184 6.56304 9.63125 6.25247C9.63125 6.25228 9.63125 6.2521 9.63125 6.25191L9.63125 1.71594C9.63125 1.40489 9.73513 1.15355 9.95975 0.929398C10.185 0.704628 10.437 0.600556 10.7477 0.6M9.96065 7.04025L10.7477 0.6M16.4 1.71594C16.3993 1.40552 16.2953 1.15363 16.0706 0.928505C15.8464 0.70388 15.5951 0.6 15.2841 0.6H10.7477M16.4 1.71594L10.7477 0.6M1.717 7.36875C1.40498 7.36875 1.15336 7.26468 0.929398 7.04025C0.704628 6.815 0.600556 6.56296 0.6 6.25231V1.71594C0.6 1.40489 0.70388 1.15355 0.928504 0.929398C1.15375 0.704628 1.40579 0.600556 1.71644 0.6H6.25281C6.56386 0.6 6.8152 0.70388 7.03935 0.928504C7.26415 1.15377 7.36822 1.40585 7.36875 1.71654C7.36875 1.71664 7.36875 1.71674 7.36875 1.71684L7.36875 6.25281C7.36875 6.56386 7.26487 6.8152 7.04025 7.03935C6.81498 7.26415 6.5629 7.36822 6.25221 7.36875C6.25211 7.36875 6.25201 7.36875 6.25191 7.36875L1.717 7.36875ZM1.717 16.4C1.40498 16.4 1.15336 16.2959 0.929398 16.0715C0.704437 15.8461 0.600555 15.5943 0.6 15.2846V10.7483C0.6 10.4372 0.70388 10.1859 0.928504 9.96171C1.15371 9.73698 1.4057 9.63291 1.71628 9.63231C1.71647 9.63231 1.71665 9.63231 1.71684 9.63231L6.25281 9.63231C6.56386 9.63231 6.8152 9.73619 7.03935 9.96082C7.26415 10.1861 7.36822 10.4382 7.36875 10.7489C7.36875 10.749 7.36875 10.7491 7.36875 10.7492L7.36875 15.2851C7.36875 15.5962 7.26487 15.8475 7.04025 16.0717C6.81512 16.2963 6.56333 16.4 6.25281 16.4H1.717Z" stroke="#FCFCFC" stroke-width="1.2"/>
</svg>
