<svg width="33" height="33" viewBox="0 0 33 33" fill="none" xmlns="http://www.w3.org/2000/svg">
<rect width="33" height="33" rx="10" fill="white"/>
<path d="M13.7508 18.2513L18.2508 13.7507M15.2508 11.5004L15.5981 11.0984C16.3014 10.395 17.2554 9.99993 18.25 10C19.2446 10.0001 20.1985 10.3953 20.9018 11.0988C21.605 11.8022 22.0001 12.7562 22 13.751C21.9999 14.7457 21.6047 15.6997 20.9014 16.4031L20.5009 16.7511M16.7508 20.5016L16.4531 20.9022C15.7413 21.6056 14.781 22 13.7804 22C12.7798 22 11.8195 21.6056 11.1078 20.9022C10.7568 20.5554 10.4782 20.1425 10.2881 19.6872C10.0979 19.232 10 18.7436 10 18.2502C10 17.7568 10.0979 17.2684 10.2881 16.8132C10.4782 16.3579 10.7568 15.945 11.1078 15.5982L11.5008 15.2509" stroke="#2960C6" stroke-width="2" stroke-linecap="round" stroke-linejoin="round"/>
</svg>
