<svg width="619" height="199" viewBox="0 0 619 199" fill="none" xmlns="http://www.w3.org/2000/svg">
<path d="M148.955 93.8C148.955 113 141.955 125 132.155 134.4L153.555 189.8H84.7555L71.7555 152H71.5555V190H7.55547V33.6H68.9555C126.155 33.6 148.755 53.8 148.955 93.8ZM58.5555 85.4L54.9555 90.4C66.1555 97.6 91.5555 101.4 106.555 101.4V95.8C91.5555 95.8 68.3555 91.4 58.5555 85.4ZM157.676 111.8C157.676 58.4 189.676 30.6 233.076 30.6C276.676 30.6 308.676 58.4 308.676 111.8C308.676 165.2 276.676 193 233.076 193C189.676 193 157.676 165.4 157.676 111.8ZM209.876 103.6L206.276 109C221.476 116.2 241.876 118 260.876 118V112C241.876 112 223.676 109.6 209.876 103.6ZM317.613 111.8C317.613 58.4 349.613 30.6 393.013 30.6C436.613 30.6 468.613 58.4 468.613 111.8C468.613 165.2 436.613 193 393.013 193C349.613 193 317.613 165.4 317.613 111.8ZM369.813 103.6L366.213 109C381.413 116.2 401.813 118 420.813 118V112C401.813 112 383.613 109.6 369.813 103.6ZM472.045 33.6H615.245V84.6H577.645V190H509.645V84.6H472.045V33.6Z" fill="#2568E4"/>
<ellipse cx="560.1" cy="32.85" rx="21.9" ry="32.85" fill="white"/>
<ellipse cx="530.9" cy="32.85" rx="21.9" ry="32.85" fill="white"/>
<ellipse cx="534.55" cy="32.8496" rx="10.95" ry="18.25" fill="#2568E4"/>
<ellipse cx="556.45" cy="32.8496" rx="10.95" ry="18.25" fill="#2568E4"/>
</svg>
