<svg width="71" height="21" viewBox="0 0 71 21" fill="none" xmlns="http://www.w3.org/2000/svg">
<path d="M17.0547 8.536C17.0547 10.84 16.2147 12.28 15.0387 13.408L17.6067 20.056H9.35066L7.79066 15.52H7.76666V20.08H0.0866563V1.312H7.45466C14.3187 1.312 17.0307 3.736 17.0547 8.536ZM6.20666 7.528L5.77466 8.128C7.11866 8.992 10.1667 9.448 11.9667 9.448V8.776C10.1667 8.776 7.38266 8.248 6.20666 7.528ZM17.2211 10.696C17.2211 4.288 21.0611 0.951999 26.2691 0.951999C31.5011 0.951999 35.3411 4.288 35.3411 10.696C35.3411 17.104 31.5011 20.44 26.2691 20.44C21.0611 20.44 17.2211 17.128 17.2211 10.696ZM23.4851 9.712L23.0531 10.36C24.8771 11.224 27.3251 11.44 29.6051 11.44V10.72C27.3251 10.72 25.1411 10.432 23.4851 9.712ZM35.5336 10.696C35.5336 4.288 39.3736 0.951999 44.5816 0.951999C49.8136 0.951999 53.6536 4.288 53.6536 10.696C53.6536 17.104 49.8136 20.44 44.5816 20.44C39.3736 20.44 35.5336 17.128 35.5336 10.696ZM41.7976 9.712L41.3656 10.36C43.1896 11.224 45.6376 11.44 47.9176 11.44V10.72C45.6376 10.72 43.4536 10.432 41.7976 9.712ZM53.1853 1.312H70.3693V7.432H65.8573V20.08H57.6973V7.432H53.1853V1.312Z" fill="#2568E4"/>
</svg>
