<svg width="35" height="31" viewBox="0 0 35 31" fill="none" xmlns="http://www.w3.org/2000/svg">
<path id="Vector" d="M3.5 0C2.57174 0 1.6815 0.376853 1.02513 1.04766C0.368749 1.71846 0 2.62826 0 3.57692L0 27.4231C0 28.3717 0.368749 29.2815 1.02513 29.9523C1.6815 30.6231 2.57174 31 3.5 31H31.5C32.4283 31 33.3185 30.6231 33.9749 29.9523C34.6312 29.2815 35 28.3717 35 27.4231V8.34615C35 7.39749 34.6312 6.48769 33.9749 5.81689C33.3185 5.14608 32.4283 4.76923 31.5 4.76923H17.983L13.3163 0H3.5Z" fill="#2960C6"/>
</svg>
