<svg width="15" height="14" viewBox="0 0 15 14" fill="none" xmlns="http://www.w3.org/2000/svg">
<g clip-path="url(#clip0_697_293)">
<path d="M13.6716 3.23581L11.3888 0.941371C11.2379 0.791285 11.0338 0.707031 10.821 0.707031C10.6082 0.707031 10.4041 0.791285 10.2532 0.941371L2.16046 9.02248L1.42157 12.2114C1.39608 12.3279 1.39695 12.4487 1.42412 12.5649C1.4513 12.6811 1.50408 12.7898 1.57862 12.8829C1.65317 12.9761 1.74758 13.0515 1.85497 13.1035C1.96237 13.1555 2.08002 13.1829 2.19934 13.1836C2.25492 13.1896 2.31099 13.1896 2.36657 13.1836L5.59046 12.4447L13.6716 4.37137C13.8217 4.22052 13.9059 4.01639 13.9059 3.80359C13.9059 3.5908 13.8217 3.38666 13.6716 3.23581ZM5.20157 11.7447L2.1799 12.3786L2.86823 9.41526L8.92323 3.38359L11.2566 5.71693L5.20157 11.7447ZM11.7777 5.15304L9.44434 2.8197L10.7977 1.47415L13.0921 3.80748L11.7777 5.15304Z" fill="#4D4D4D"/>
</g>
<defs>
<clipPath id="clip0_697_293">
<rect width="14" height="14" fill="white" transform="translate(0.5)"/>
</clipPath>
</defs>
</svg>
