<svg width="18" height="36" viewBox="0 0 18 36" fill="none" xmlns="http://www.w3.org/2000/svg">
<rect width="18" height="36" rx="9" fill="#2960C6"/>
<path d="M5.19701 11.8313C5.13458 11.7782 5.08504 11.7151 5.05122 11.6456C5.01741 11.5761 5 11.5015 5 11.4262C5 11.3509 5.01741 11.2763 5.05122 11.2068C5.08504 11.1373 5.13458 11.0742 5.19701 11.0212L8.52712 8.16875C8.58904 8.11528 8.6627 8.07284 8.74386 8.04387C8.82502 8.01491 8.91208 8 9 8C9.08792 8 9.17498 8.01491 9.25614 8.04387C9.3373 8.07284 9.41096 8.11528 9.47288 8.16875L12.803 11.0212C12.8654 11.0742 12.915 11.1373 12.9488 11.2068C12.9826 11.2763 13 11.3509 13 11.4262C13 11.5015 12.9826 11.5761 12.9488 11.6456C12.915 11.7151 12.8654 11.7782 12.803 11.8313C12.7411 11.8847 12.6674 11.9272 12.5863 11.9561C12.5051 11.9851 12.418 12 12.3301 12C12.2422 12 12.1551 11.9851 12.074 11.9561C11.9928 11.9272 11.9192 11.8847 11.8572 11.8313L9 9.37817L6.14276 11.8313C6.08085 11.8847 6.00718 11.9272 5.92602 11.9561C5.84486 11.9851 5.75781 12 5.66988 12C5.58196 12 5.49491 11.9851 5.41375 11.9561C5.33259 11.9272 5.25892 11.8847 5.19701 11.8313Z" fill="white"/>
<path d="M5.19701 24.1687C5.13458 24.2218 5.08504 24.2849 5.05122 24.3544C5.01741 24.4239 5 24.4985 5 24.5738C5 24.6491 5.01741 24.7237 5.05122 24.7932C5.08504 24.8627 5.13458 24.9258 5.19701 24.9788L8.52712 27.8313C8.58904 27.8847 8.6627 27.9272 8.74386 27.9561C8.82502 27.9851 8.91208 28 9 28C9.08792 28 9.17498 27.9851 9.25614 27.9561C9.3373 27.9272 9.41096 27.8847 9.47288 27.8313L12.803 24.9788C12.8654 24.9258 12.915 24.8627 12.9488 24.7932C12.9826 24.7237 13 24.6491 13 24.5738C13 24.4985 12.9826 24.4239 12.9488 24.3544C12.915 24.2849 12.8654 24.2218 12.803 24.1687C12.7411 24.1153 12.6674 24.0728 12.5863 24.0439C12.5051 24.0149 12.418 24 12.3301 24C12.2422 24 12.1551 24.0149 12.074 24.0439C11.9928 24.0728 11.9192 24.1153 11.8572 24.1687L9 26.6218L6.14276 24.1687C6.08085 24.1153 6.00718 24.0728 5.92602 24.0439C5.84486 24.0149 5.75781 24 5.66988 24C5.58196 24 5.49491 24.0149 5.41375 24.0439C5.33259 24.0728 5.25892 24.1153 5.19701 24.1687Z" fill="white"/>
</svg>
