<svg width="15" height="15" viewBox="0 0 15 15" fill="none" xmlns="http://www.w3.org/2000/svg">
<path d="M6.32812 3.04688V3.28125H8.67188V3.04688C8.67188 2.73607 8.54841 2.438 8.32864 2.21823C8.10887 1.99847 7.8108 1.875 7.5 1.875C7.1892 1.875 6.89113 1.99847 6.67136 2.21823C6.45159 2.438 6.32812 2.73607 6.32812 3.04688ZM5.39062 3.28125V3.04688C5.39062 2.48743 5.61286 1.95091 6.00845 1.55532C6.40403 1.15974 6.94056 0.9375 7.5 0.9375C8.05944 0.9375 8.59597 1.15974 8.99155 1.55532C9.38714 1.95091 9.60938 2.48743 9.60938 3.04688V3.28125H13.125C13.2493 3.28125 13.3685 3.33064 13.4565 3.41854C13.5444 3.50645 13.5938 3.62568 13.5938 3.75C13.5938 3.87432 13.5444 3.99355 13.4565 4.08146C13.3685 4.16936 13.2493 4.21875 13.125 4.21875H12.4181L11.5312 11.985C11.4659 12.557 11.1922 13.0848 10.7626 13.468C10.3329 13.8512 9.77725 14.0628 9.20156 14.0625H5.79844C5.22275 14.0628 4.6671 13.8512 4.23743 13.468C3.80777 13.0848 3.53415 12.557 3.46875 11.985L2.58187 4.21875H1.875C1.75068 4.21875 1.63145 4.16936 1.54354 4.08146C1.45564 3.99355 1.40625 3.87432 1.40625 3.75C1.40625 3.62568 1.45564 3.50645 1.54354 3.41854C1.63145 3.33064 1.75068 3.28125 1.875 3.28125H5.39062ZM4.40062 11.8781C4.43976 12.2212 4.60376 12.5379 4.86137 12.7678C5.11898 12.9978 5.45219 13.1249 5.7975 13.125H9.20203C9.54734 13.1249 9.88055 12.9978 10.1382 12.7678C10.3958 12.5379 10.5598 12.2212 10.5989 11.8781L11.475 4.21875H3.52547L4.40062 11.8781ZM6.09375 5.85938C6.21807 5.85938 6.3373 5.90876 6.42521 5.99667C6.51311 6.08458 6.5625 6.2038 6.5625 6.32812V11.0156C6.5625 11.1399 6.51311 11.2592 6.42521 11.3471C6.3373 11.435 6.21807 11.4844 6.09375 11.4844C5.96943 11.4844 5.8502 11.435 5.76229 11.3471C5.67439 11.2592 5.625 11.1399 5.625 11.0156V6.32812C5.625 6.2038 5.67439 6.08458 5.76229 5.99667C5.8502 5.90876 5.96943 5.85938 6.09375 5.85938ZM9.375 6.32812C9.375 6.2038 9.32561 6.08458 9.23771 5.99667C9.1498 5.90876 9.03057 5.85938 8.90625 5.85938C8.78193 5.85938 8.6627 5.90876 8.57479 5.99667C8.48689 6.08458 8.4375 6.2038 8.4375 6.32812V11.0156C8.4375 11.1399 8.48689 11.2592 8.57479 11.3471C8.6627 11.435 8.78193 11.4844 8.90625 11.4844C9.03057 11.4844 9.1498 11.435 9.23771 11.3471C9.32561 11.2592 9.375 11.1399 9.375 11.0156V6.32812Z" fill="#FF2828"/>
</svg>
